<?xml version="1.0" encoding="UTF-8" standalone="no"?>
<svg width="141px" height="144px" viewBox="0 0 141 144" version="1.1" xmlns="http://www.w3.org/2000/svg" xmlns:xlink="http://www.w3.org/1999/xlink" xmlns:sketch="http://www.bohemiancoding.com/sketch/ns">
    <!-- Generator: Sketch 3.4.2 (15855) - http://www.bohemiancoding.com/sketch -->
    <title>Prospect</title>
    <desc>Created with Sketch.</desc>
    <defs></defs>
    <g id="Page-1" stroke="none" stroke-width="1" fill="none" fill-rule="evenodd" sketch:type="MSPage">
        <g id="FastStart" sketch:type="MSArtboardGroup" transform="translate(-304.000000, -309.000000)">
            <g id="Circle" sketch:type="MSLayerGroup" transform="translate(157.000000, 163.000000)">
                <g id="Prospect" transform="translate(147.000000, 146.000000)" sketch:type="MSShapeGroup">
                    <path d="M70.6504168,129.369808 L44.3291659,87.7017666 L96.9716677,87.7017666 L70.6504168,129.369808 Z" id="Fill-1301" fill="#F0F1F1"></path>
                    <path d="M79.4230704,87.7758801 L70.6493201,87.7758801 L61.8755698,87.7758801 L48.7149443,79.5488374 L48.7149443,86.6049737 C48.7149443,86.6049737 48.7149443,103.050288 70.6493201,103.050288 C92.5836958,103.050288 92.5836958,86.6049737 92.5836958,86.6049737 L92.5836958,79.5466447 L79.4230704,87.7758801 Z" id="Fill-1302" fill="#F8B4B4"></path>
                    <path d="M107.938856,42.1486836 C107.938856,39.7125843 105.745418,37.276485 103.55198,37.276485 C101.358543,37.276485 101.358543,39.7125843 101.358543,39.7125843 L101.358543,37.276485 C101.319061,17.5421075 99.1124628,4.38585578 70.6504168,4.38585578 C42.1883708,4.38585578 39.9817726,17.5421075 39.9422907,37.276485 L39.9422907,54.8115758 L48.716041,76.738662 L59.9135399,85.4985329 C61.1616058,86.9018665 62.9492575,87.7022051 64.82684,87.7022051 L70.6504168,87.7022051 L76.4739936,87.7022051 C78.3515761,87.7022051 80.1392278,86.9018665 81.3872937,85.4985329 L92.5847926,76.738662 L99.6169534,59.159717 C105.837542,58.7124045 107.938856,49.2815647 107.938856,42.1486836" id="Fill-1303" fill="#FBC8C8"></path>
                    <path d="M39.9422907,37.2760465 L39.9422907,39.7121458 C39.9422907,39.7121458 39.9422907,37.2760465 37.7488532,37.2760465 C35.5554156,37.2760465 33.361978,39.7121458 33.361978,42.148245 C33.361978,49.2833189 35.4632912,58.7119659 41.6816867,59.1614712 L48.716041,76.7382235 L59.9135399,85.5002871 C61.1616058,86.9014279 62.9492575,87.7017666 64.82684,87.7017666 L70.6504168,87.7017666 L70.6504168,4.38541723 C42.1883708,4.38541723 39.9817726,17.5416689 39.9422907,37.2760465" id="Fill-1304" fill="#FBD7D7"></path>
                    <path d="M55.295257,70.2342112 L55.3193849,70.1596591 L53.064531,70.1596591 L53.1018195,70.2342112 L55.295257,70.2342112 Z" id="Fill-1305" fill="#FBC8C8"></path>
                    <path d="M70.6493201,87.7758801 L61.8755698,87.7758801 L48.7149443,79.5488374 L48.7149443,86.6049737 C48.7149443,86.6049737 48.7149443,103.050288 70.6493201,103.050288 L70.6493201,87.7758801 L70.6493201,87.7758801 Z" id="Fill-1306" fill="#FBC8C8"></path>
                    <path d="M88.1968207,70.2342112 L86.0033831,70.2342112 L81.616508,57.0779595 L70.6493201,57.0779595 L59.6821322,57.0779595 L55.295257,70.2342112 L53.1018195,70.2342112 L46.5215067,57.0779595 L46.5215067,21.2118246 C53.8453948,26.1366482 61.4632035,26.4129295 70.6493201,26.3734607 L70.6493201,26.3668826 C76.3610315,26.3405701 87.957736,26.4348565 94.7771334,20.2579964 L94.7771334,57.0779595 L88.1968207,70.2342112 Z M98.7406751,13.7566153 C98.955632,12.8422558 99.060917,11.9147401 99.060917,10.989417 C99.060917,4.75993187 97.0692757,0.50388444 70.6493201,0.087269803 L70.6493201,0.0346447962 C69.2608741,0.01271771 67.8241725,-0.000438541723 66.2975399,-0.000438541723 C38.853249,-0.000438541723 37.6885336,17.4995689 37.7499499,21.2227882 C37.7587236,21.667908 37.7828514,21.9288403 37.7828514,21.9288403 L37.7828514,37.312884 L37.7828514,37.3435819 L42.1697266,46.1144164 L42.1697266,61.4633767 L44.3280692,76.8057589 L61.8755698,87.7758801 L70.6493201,87.7758801 L79.4230704,87.7758801 L96.970571,76.8057589 L99.1289136,61.4633767 L99.1289136,46.1144164 L99.1991036,46.1144164 L103.585979,37.3435819 L103.585979,26.3120649 C103.585979,21.9770799 101.960641,17.6618294 98.7406751,13.7566153 L98.7406751,13.7566153 Z" id="Fill-1307" fill="#692E19"></path>
                    <path d="M70.6504168,26.3734607 L70.6504168,0.0346447962 C69.2619708,0.0149104186 67.8252692,-0.000438541723 66.2986366,-0.000438541723 C35.5905106,-0.000438541723 37.7839482,21.9266476 37.7839482,21.9266476 L37.7839482,37.3435819 L42.1708233,46.1144164 L42.1708233,61.4633767 L44.3291659,76.8057589 L61.8766665,87.7758801 L70.6504168,87.7758801 L70.6504168,57.0779595 L59.6832289,57.0779595 L55.2963538,70.2342112 L53.1029162,70.2342112 L46.5226035,57.0779595 L46.5226035,21.1920902 C51.3240383,24.4197573 55.1559738,26.4326638 70.6504168,26.3734607" id="Fill-1308" fill="#84462D"></path>
                    <path d="M64.0701041,41.6548856 C64.0701041,39.2341353 62.104784,37.2694684 59.6832289,37.2694684 C59.678842,37.2694684 59.6744552,37.2716611 59.6700683,37.2716611 C59.6722617,37.317708 59.6832289,37.3615621 59.6832289,37.407609 C59.6832289,39.8239739 57.7266826,41.7842554 55.3095144,41.7908335 C55.3840913,44.1479953 57.307736,46.0403028 59.6832289,46.0403028 C62.104784,46.0403028 64.0701041,44.0778286 64.0701041,41.6548856" id="Fill-1309" fill="#3E3E3F"></path>
                    <path d="M85.9906612,41.6548856 C85.9906612,39.2341353 84.0253411,37.2694684 81.603786,37.2694684 C81.5993991,37.2694684 81.5950123,37.2716611 81.5906254,37.2716611 C81.5928188,37.317708 81.603786,37.3615621 81.603786,37.407609 C81.603786,39.8239739 79.6472397,41.7842554 77.2300715,41.7908335 C77.3046484,44.1479953 79.2282931,46.0403028 81.603786,46.0403028 C84.0253411,46.0403028 85.9906612,44.0778286 85.9906612,41.6548856" id="Fill-1310" fill="#3E3E3F"></path>
                    <path d="M44.3291659,87.7017666 L48.716041,85.5090579 L70.6175152,96.4309396 L57.4897913,109.628853 L44.3291659,87.7017666 Z" id="Fill-1311" fill="#FFFFFF"></path>
                    <path d="M96.9716677,87.7017666 L92.5847926,85.5090579 L70.6833184,96.4309396 L83.8110423,109.628853 L96.9716677,87.7017666 Z" id="Fill-1312" fill="#FFFFFF"></path>
                    <path d="M79.4241671,129.369808 L73.2847353,107.004181 L77.2307295,103.06169 L70.6087415,96.4309396 L64.0328156,103.00468 L68.0204851,106.991024 L61.8766665,129.369808 L79.4241671,129.369808 Z" id="Fill-1313" fill="#089786"></path>
                    <path d="M70.6504168,129.369808 L70.6504168,96.472601 L70.6087415,96.4309396 L64.0328156,103.00468 L68.0204851,106.991024 L61.8766665,129.369808 L70.6504168,129.369808 Z" id="Fill-1314" fill="#11B3A0"></path>
                    <path d="M0.460414356,129.369808 L9.23416466,105.250014 C10.5831288,102.327133 12.9586217,100.000669 15.9087952,98.7091638 L44.3291659,87.7083447 L70.6504168,129.369808 L0.460414356,129.369808 Z" id="Fill-1315" fill="#3E3E3F"></path>
                    <path d="M140.840419,129.369808 L132.066669,105.250014 C130.717705,102.327133 128.342212,100.000669 125.392038,98.7091638 L96.9716677,87.7083447 L70.6504168,129.369808 L140.840419,129.369808 Z" id="Fill-1316" fill="#3E3E3F"></path>
                    <path d="M116.712606,118.399687 L94.7782301,118.399687 L94.7782301,114.01427 L116.712606,114.01427 L116.712606,118.399687 Z" id="Fill-1317" fill="#FFFFFF"></path>
                    <path d="M61.8766665,63.5819718 L79.4241671,63.5819718 C79.4241671,63.5819718 79.4241671,72.3593844 70.6504168,72.3593844 C61.8766665,72.3593844 61.8766665,63.5819718 61.8766665,63.5819718" id="Fill-1318" fill="#FBC8C8"></path>
                    <g id="timer" transform="translate(94.000000, 87.000000)">
                        <g id="Group">
                            <path d="M42.486778,18.1662082 C42.486778,18.1662082 41.707048,17.174476 40.590422,16.0272575 C39.474454,14.880039 38.48548,14.0552856 38.48548,14.0552856 L39.602106,12.9080671 L43.603404,17.0196658 L42.486778,18.1662082 L42.486778,18.1662082 Z" id="Shape" fill="#D1DADE"></path>
                            <path d="M44.9524317,17.7365874 L38.9038983,11.5223408 L40.7184583,9.65806676 L46.7669917,15.8723134 L44.9524317,17.7365874 L44.9524317,17.7365874 Z" id="Rectangle-path" fill="#D1DADE"></path>
                            <path d="M26.12495,8.30364452 C26.12495,8.30364452 24.901728,8.19886027 23.280416,8.19886027 C21.770306,8.19886027 20.46615,8.30364452 20.46615,8.30364452 L20.46615,5.91997192 L26.125608,5.91997192 L26.125608,8.30364452 L26.12495,8.30364452 Z" id="Shape" fill="#D1DADE"></path>
                            <path d="M26.12495,0.240665753 L20.46615,0.240665753 L19.249508,1.45751507 L19.21595,1.45751507 L19.21595,5.51367945 L27.30935,5.51367945 L27.30935,1.45751507 L26.12495,0.240665753 Z" id="Shape" fill="#D1DADE"></path>
                            <path d="M23.29555,8.74509041 C20.177288,8.74509041 17.150488,9.37311986 14.299374,10.6122781 C11.54696,11.8081705 9.07617,13.5198719 6.954778,15.6987082 C4.833386,17.8782205 3.16733,20.4167034 2.003328,23.244526 C0.797214,26.1737527 0.185932,29.2834788 0.185932,32.4871726 C0.185932,35.6901904 0.797214,38.8005925 2.003328,41.7298192 C3.16733,44.5576418 4.833386,47.0961247 6.954778,49.275637 C9.07617,51.4551493 11.54696,53.1661747 14.299374,54.3620671 C17.150488,55.6012253 20.177288,56.2292548 23.29555,56.2292548 C26.413812,56.2292548 29.440612,55.6012253 32.291726,54.3620671 C35.04414,53.1654986 37.51493,51.4544733 39.635664,49.275637 C41.757714,47.0961247 43.423112,44.5576418 44.587114,41.7298192 C45.79257,38.8005925 46.40451,35.6901904 46.40451,32.4871726 C46.40451,29.2834788 45.79257,26.1737527 44.587114,23.244526 C43.422454,20.4167034 41.757056,17.8782205 39.635664,15.6987082 C37.514272,13.5191959 35.043482,11.8081705 32.291726,10.6122781 C29.440612,9.37311986 26.413812,8.74509041 23.29555,8.74509041 L23.29555,8.74509041 L23.29555,8.74509041 Z" id="Shape" fill="#D1DADE"></path>
                            <path d="M23.29555,12.1252274 C34.24138,12.1252274 43.115168,21.2414568 43.115168,32.4878486 C43.115168,43.7335644 34.242038,52.8497938 23.29555,52.8497938 C12.349062,52.8497938 3.475932,43.7335644 3.475932,32.4878486 C3.475932,21.2414568 12.34972,12.1252274 23.29555,12.1252274 L23.29555,12.1252274 Z" id="Path" fill="#FFFFFF"></path>
                        </g>
                        <g id="Group" transform="translate(21.996000, 14.872603)" fill="#000000">
                            <path d="M2.528036,19.3377637 C2.528036,18.801674 2.201668,18.3460315 1.743042,18.1635041 L1.36206,0.409672603 C1.361402,0.374519178 1.333766,0.346802055 1.29955,0.346802055 C1.265334,0.346802055 1.237698,0.374519178 1.23704,0.409672603 L0.856716,18.1635041 C0.39809,18.3467075 0.071064,18.801674 0.071064,19.3377637 C0.071064,19.8549247 0.373744,20.2977226 0.807366,20.4930945 L0.76657,22.3832671 C0.76657,22.3967877 0.784336,22.7104644 1.277836,22.7104644 C1.761466,22.7104644 1.828582,22.4062521 1.831214,22.3934075 C1.831872,22.3879993 1.83253,22.3832671 1.83253,22.379211 L1.792392,20.4924185 C2.225356,20.2977226 2.528036,19.8549247 2.528036,19.3377637 L2.528036,19.3377637 Z M1.2831,20.3977747 C0.723142,20.3977747 0.268464,19.9299637 0.268464,19.3553404 C0.268464,18.7793651 0.7238,18.3122301 1.2831,18.3122301 C1.8424,18.3122301 2.297736,18.7793651 2.297736,19.3553404 C2.297736,19.9292877 1.843058,20.3977747 1.2831,20.3977747 L1.2831,20.3977747 Z" id="Shape"></path>
                            <ellipse id="Oval" cx="1.2831" cy="19.3546644" rx="0.902776" ry="0.927509589"></ellipse>
                        </g>
                    </g>
                </g>
            </g>
        </g>
    </g>
</svg>
