<?xml version="1.0" encoding="UTF-8" standalone="no"?>
<svg width="126px" height="140px" viewBox="0 0 126 140" version="1.1" xmlns="http://www.w3.org/2000/svg" xmlns:xlink="http://www.w3.org/1999/xlink" xmlns:sketch="http://www.bohemiancoding.com/sketch/ns">
    <!-- Generator: Sketch 3.4.2 (15855) - http://www.bohemiancoding.com/sketch -->
    <title>Prospectleadership</title>
    <desc>Created with Sketch.</desc>
    <defs></defs>
    <g id="Page-1" stroke="none" stroke-width="1" fill="none" fill-rule="evenodd" sketch:type="MSPage">
        <g id="LeadershipBonus" sketch:type="MSArtboardGroup" transform="translate(-308.000000, -320.000000)">
            <g id="Group" sketch:type="MSLayerGroup" transform="translate(144.000000, 123.000000)">
                <g id="Prospect" transform="translate(164.000000, 197.000000)" sketch:type="MSShapeGroup">
                    <path d="M63.0195312,115.196078 L39.5820312,78.0931788 L86.4570312,78.0931788 L63.0195312,115.196078 Z" id="Fill-1301" fill="#F0F1F1"></path>
                    <path d="M70.8310547,78.1591725 L63.0185547,78.1591725 L55.2060547,78.1591725 L43.4873047,70.8334829 L43.4873047,77.1165503 C43.4873047,77.1165503 43.4873047,91.7601196 63.0185547,91.7601196 C82.5498047,91.7601196 82.5498047,77.1165503 82.5498047,77.1165503 L82.5498047,70.8315304 L70.8310547,78.1591725 Z" id="Fill-1302" fill="#F8B4B4"></path>
                    <path d="M96.2226562,37.5308824 C96.2226562,35.3616816 94.2695312,33.1924809 92.3164062,33.1924809 C90.3632812,33.1924809 90.3632812,35.3616816 90.3632812,35.3616816 L90.3632812,33.1924809 C90.328125,15.6201977 88.3632813,3.90534231 63.0195312,3.90534231 C37.6757813,3.90534231 35.7109375,15.6201977 35.6757812,33.1924809 L35.6757812,48.8064307 L43.4882812,68.3311898 L53.4589844,76.131331 C54.5703125,77.3809156 56.1621094,78.0935693 57.8339844,78.0935693 L63.0195312,78.0935693 L68.2050781,78.0935693 C69.8769531,78.0935693 71.46875,77.3809156 72.5800781,76.131331 L82.5507812,68.3311898 L88.8125,52.6781904 C94.3515625,52.2798853 96.2226562,43.8822865 96.2226562,37.5308824" id="Fill-1303" fill="#FBC8C8"></path>
                    <path d="M35.6757812,33.1920904 L35.6757812,35.3612911 C35.6757812,35.3612911 35.6757812,33.1920904 33.7226562,33.1920904 C31.7695312,33.1920904 29.8164062,35.3612911 29.8164062,37.5304919 C29.8164062,43.8838485 31.6875,52.2794948 37.2246094,52.6797524 L43.4882812,68.3307993 L53.4589844,76.132893 C54.5703125,77.3805251 56.1621094,78.0931788 57.8339844,78.0931788 L63.0195312,78.0931788 L63.0195312,3.90495181 C37.6757812,3.90495181 35.7109375,15.6198072 35.6757812,33.1920904" id="Fill-1304" fill="#FBD7D7"></path>
                    <path d="M49.3466797,62.5393652 L49.3681641,62.4729811 L47.3603516,62.4729811 L47.3935547,62.5393652 L49.3466797,62.5393652 Z" id="Fill-1305" fill="#FBC8C8"></path>
                    <path d="M63.0185547,78.1591725 L55.2060547,78.1591725 L43.4873047,70.8334829 L43.4873047,77.1165503 C43.4873047,77.1165503 43.4873047,91.7601196 63.0185547,91.7601196 L63.0185547,78.1591725 L63.0185547,78.1591725 Z" id="Fill-1306" fill="#FBC8C8"></path>
                    <path d="M78.6435547,62.5393652 L76.6904297,62.5393652 L72.7841797,50.8245098 L63.0185547,50.8245098 L53.2529297,50.8245098 L49.3466797,62.5393652 L47.3935547,62.5393652 L41.5341797,50.8245098 L41.5341797,18.8878614 C48.0556641,23.2731223 54.8388672,23.5191343 63.0185547,23.4839897 L63.0185547,23.4781323 C68.1044922,23.4547026 78.4306641,23.538659 84.5029297,18.0385344 L84.5029297,50.8245098 L78.6435547,62.5393652 Z M88.0322266,12.2494433 C88.2236328,11.4352609 88.3173828,10.6093636 88.3173828,9.78541874 C88.3173828,4.2384347 86.5439453,0.448678963 63.0185547,0.077708541 L63.0185547,0.0308491193 C61.7822266,0.0113243603 60.5029297,-0.000390495181 59.1435547,-0.000390495181 C34.7060547,-0.000390495181 33.6689453,15.5823197 33.7236328,18.8976238 C33.7314453,19.2939764 33.7529297,19.526321 33.7529297,19.526321 L33.7529297,33.224892 L33.7529297,33.2522267 L37.6591797,41.0621303 L37.6591797,54.7294616 L39.5810547,68.3909355 L55.2060547,78.1591725 L63.0185547,78.1591725 L70.8310547,78.1591725 L86.4560547,68.3909355 L88.3779297,54.7294616 L88.3779297,41.0621303 L88.4404297,41.0621303 L92.3466797,33.2522267 L92.3466797,23.4293204 C92.3466797,19.5692755 90.8994141,15.7268029 88.0322266,12.2494433 L88.0322266,12.2494433 Z" id="Fill-1307" fill="#692E19"></path>
                    <path d="M63.0195312,23.4839897 L63.0195312,0.0308491193 C61.7832031,0.0132768362 60.5039062,-0.000390495181 59.1445312,-0.000390495181 C31.8007812,-0.000390495181 33.7539062,19.5243686 33.7539062,19.5243686 L33.7539062,33.2522267 L37.6601562,41.0621303 L37.6601562,54.7294616 L39.5820312,68.3909355 L55.2070312,78.1591725 L63.0195312,78.1591725 L63.0195312,50.8245098 L53.2539062,50.8245098 L49.3476562,62.5393652 L47.3945312,62.5393652 L41.5351562,50.8245098 L41.5351562,18.8702891 C45.8105469,21.7443337 49.2226562,23.5367065 63.0195312,23.4839897" id="Fill-1308" fill="#84462D"></path>
                    <path d="M57.1601562,37.0911848 C57.1601562,34.9356514 55.4101562,33.186233 53.2539062,33.186233 C53.25,33.186233 53.2460938,33.1881854 53.2421875,33.1881854 C53.2441406,33.2291874 53.2539062,33.268237 53.2539062,33.3092389 C53.2539062,35.4608674 51.5117187,37.2063809 49.359375,37.2122383 C49.4257812,39.3111499 51.1386719,40.9961366 53.2539062,40.9961366 C55.4101562,40.9961366 57.1601562,39.2486707 57.1601562,37.0911848" id="Fill-1309" fill="#3E3E3F"></path>
                    <path d="M76.6791016,37.0911848 C76.6791016,34.9356514 74.9291016,33.186233 72.7728516,33.186233 C72.7689453,33.186233 72.7650391,33.1881854 72.7611328,33.1881854 C72.7630859,33.2291874 72.7728516,33.268237 72.7728516,33.3092389 C72.7728516,35.4608674 71.0306641,37.2063809 68.8783203,37.2122383 C68.9447266,39.3111499 70.6576172,40.9961366 72.7728516,40.9961366 C74.9291016,40.9961366 76.6791016,39.2486707 76.6791016,37.0911848" id="Fill-1310" fill="#3E3E3F"></path>
                    <path d="M39.5820313,78.0931788 L43.4882813,76.1407029 L62.9902344,85.8659854 L51.3007813,97.6179379 L39.5820313,78.0931788 Z" id="Fill-1311" fill="#FFFFFF"></path>
                    <path d="M86.4570312,78.0931788 L82.5507812,76.1407029 L63.0488281,85.8659854 L74.7382812,97.6179379 L86.4570312,78.0931788 Z" id="Fill-1312" fill="#FFFFFF"></path>
                    <path d="M70.8320312,115.196078 L65.3652344,95.2808242 L68.8789062,91.7702725 L62.9824219,85.8659854 L57.1269531,91.7195081 L60.6777344,95.2691093 L55.2070312,115.196078 L70.8320312,115.196078 Z" id="Fill-1313" fill="#089786"></path>
                    <path d="M63.0195312,115.196078 L63.0195312,85.9030824 L62.9824219,85.8659854 L57.1269531,91.7195081 L60.6777344,95.2691093 L55.2070312,115.196078 L63.0195312,115.196078 Z" id="Fill-1314" fill="#11B3A0"></path>
                    <path d="M0.51953125,115.196078 L8.33203125,93.7188435 C9.53320313,91.1161931 11.6484375,89.0446162 14.2753906,87.8946078 L39.5820312,78.0990362 L63.0195312,115.196078 L0.51953125,115.196078 Z" id="Fill-1315" fill="#3E3E3F"></path>
                    <path d="M125.519531,115.196078 L117.707031,93.7188435 C116.505859,91.1161931 114.390625,89.0446162 111.763672,87.8946078 L86.4570312,78.0990362 L63.0195312,115.196078 L125.519531,115.196078 Z" id="Fill-1316" fill="#3E3E3F"></path>
                    <path d="M104.035156,105.427841 L84.5039062,105.427841 L84.5039062,101.52289 L104.035156,101.52289 L104.035156,105.427841 Z" id="Fill-1317" fill="#FFFFFF"></path>
                    <path d="M55.2070312,56.6159438 L70.8320312,56.6159438 C70.8320312,56.6159438 70.8320312,64.4317049 63.0195312,64.4317049 C55.2070312,64.4317049 55.2070312,56.6159438 55.2070312,56.6159438" id="Fill-1318" fill="#FBC8C8"></path>
                    <g id="Medal" transform="translate(30.000000, 76.000000)">
                        <path d="M42.5313,25.6138 L60.4003,-0.0002 L63.7543,-0.0002 L44.6913,27.3218 C44.0063,26.7118 43.2933,26.1308 42.5313,25.6138" id="Fill-735" fill="#FBE158"></path>
                        <path d="M35.378,22.5273 L51.095,0.0003 L60.4,0.0003 L42.531,25.6133 C40.397,24.1643 37.976,23.1113 35.378,22.5273" id="Fill-736" fill="#DF2C2C"></path>
                        <path d="M32.4225,22.0842 L47.8305,0.0002 L51.0945,0.0002 L35.3785,22.5272 C34.4155,22.3112 33.4295,22.1632 32.4225,22.0842" id="Fill-737" fill="#FBE158"></path>
                        <path d="M52.754,43 C52.754,54.598 43.352,64 31.754,64 C20.156,64 10.754,54.598 10.754,43 C10.754,31.402 20.156,22 31.754,22 C43.352,22 52.754,31.402 52.754,43" id="Fill-738" fill="#F3B606"></path>
                        <path d="M47.254,43 C47.254,51.56 40.314,58.5 31.754,58.5 C23.194,58.5 16.254,51.56 16.254,43 C16.254,34.44 23.194,27.5 31.754,27.5 C40.314,27.5 47.254,34.44 47.254,43" id="Fill-739" fill="#FBE158"></path>
                        <path d="M63.6518,26.1338 C63.7108,26.1248 63.7538,26.0748 63.7538,26.0148 L63.7538,25.9848 C63.7538,25.9258 63.7108,25.8748 63.6518,25.8658 C60.3098,25.3648 58.3888,23.4428 57.8878,20.1018 C57.8788,20.0428 57.8288,19.9998 57.7688,19.9998 L57.7388,19.9998 C57.6788,19.9998 57.6288,20.0438 57.6198,20.1018 C57.1188,23.4438 55.1978,25.3648 51.8558,25.8658 C51.7968,25.8748 51.7538,25.9258 51.7538,25.9848 L51.7538,26.0148 C51.7538,26.0748 51.7978,26.1248 51.8558,26.1338 C55.1978,26.6348 57.1188,28.5568 57.6198,31.8978 C57.6288,31.9568 57.6798,31.9998 57.7388,31.9998 L57.7818,31.9998 C57.8338,31.9998 57.8778,31.9618 57.8858,31.9108 C58.3848,28.5618 60.3058,26.6358 63.6518,26.1338" id="Fill-740" fill="#FFFFFF"></path>
                        <path d="M13.6348,57.1561 C13.7028,57.1461 13.7538,57.0871 13.7538,57.0181 L13.7538,56.9821 C13.7538,56.9131 13.7038,56.8541 13.6348,56.8441 C9.7358,56.2591 7.4948,54.0171 6.9098,50.1191 C6.8998,50.0501 6.8408,50.0001 6.7718,50.0001 L6.7358,50.0001 C6.6668,50.0001 6.6078,50.0511 6.5978,50.1191 C6.0128,54.0171 3.7718,56.2591 -0.1272,56.8441 C-0.1952,56.8541 -0.2462,56.9131 -0.2462,56.9821 L-0.2462,57.0181 C-0.2462,57.0871 -0.1952,57.1461 -0.1272,57.1561 C3.7718,57.7411 6.0128,59.9831 6.5978,63.8811 C6.6078,63.9491 6.6668,64.0001 6.7368,64.0001 L6.7868,64.0001 C6.8468,64.0001 6.8988,63.9561 6.9078,63.8961 C7.4898,59.9891 9.7308,57.7421 13.6348,57.1561" id="Fill-741" fill="#FFFFFF"></path>
                        <path d="M31.754,22 C20.156,22 10.754,31.402 10.754,43 C10.754,48.88 13.177,54.189 17.072,58.001 L46.755,28.318 C42.943,24.423 37.634,22 31.754,22" id="Fill-742" fill="#FACB1B"></path>
                        <path d="M31.754,27.5 C23.194,27.5 16.254,34.439 16.254,43 C16.254,47.361 18.062,51.295 20.961,54.112 L42.866,32.207 C40.049,29.308 36.115,27.5 31.754,27.5" id="Fill-743" fill="#FCF7C2"></path>
                        <path d="M30.3888,37.4791 C29.8498,37.6191 28.5808,37.9961 28.0628,37.9961 C27.0298,37.9961 26.1388,37.1351 26.1388,36.1011 C26.1388,35.2101 26.7128,34.4641 27.6038,34.2051 L30.4458,33.3731 C31.2788,33.1431 31.9108,33.0001 32.5138,33.0001 L32.5718,33.0001 C33.7778,33.0001 34.7538,33.9761 34.7538,35.1821 L34.7538,51.3781 C34.7538,52.5841 33.7778,53.5601 32.5718,53.5601 C31.3648,53.5601 30.3888,52.5841 30.3888,51.3781 L30.3888,37.4791 Z" id="Fill-744" fill="#F99134"></path>
                        <path d="M20.9767,25.6138 L3.1077,-0.0002 L-0.2463,-0.0002 L18.8167,27.3218 C19.5017,26.7118 20.2147,26.1308 20.9767,25.6138" id="Fill-745" fill="#FBE158"></path>
                        <path d="M28.13,22.5273 L12.413,0.0003 L3.108,0.0003 L20.977,25.6133 C23.111,24.1643 25.532,23.1113 28.13,22.5273" id="Fill-746" fill="#DF2C2C"></path>
                        <path d="M31.0855,22.0842 L15.6775,0.0002 L12.4135,0.0002 L28.1295,22.5272 C29.0925,22.3112 30.0785,22.1632 31.0855,22.0842" id="Fill-747" fill="#FBE158"></path>
                    </g>
                </g>
            </g>
        </g>
    </g>
</svg>
