<?xml version="1.0" encoding="UTF-8" standalone="no"?>
<svg width="197px" height="191px" viewBox="0 0 197 191" version="1.1" xmlns="http://www.w3.org/2000/svg" xmlns:xlink="http://www.w3.org/1999/xlink" xmlns:sketch="http://www.bohemiancoding.com/sketch/ns">
    <!-- Generator: Sketch 3.4.2 (15855) - http://www.bohemiancoding.com/sketch -->
    <title>SOC_Blue</title>
    <desc>Created with Sketch.</desc>
    <defs></defs>
    <g id="Page-1" stroke="none" stroke-width="1" fill="none" fill-rule="evenodd" sketch:type="MSPage">
        <g id="Disclaimer" sketch:type="MSArtboardGroup" transform="translate(-273.000000, -161.000000)" fill="#00BBC6">
            <g id="SOC_Blue" sketch:type="MSLayerGroup" transform="translate(273.000000, 161.000000)">
                <g id="Layer_1" sketch:type="MSShapeGroup">
                    <g id="Group">
                        <g transform="translate(12.438725, 0.000000)" id="Shape">
                            <path d="M14.5947712,63.652521 C76.3737745,24.3352941 165.849673,-6.12521008 179.283497,4.22142857 C192.302696,14.1542017 162.035131,168.443277 162.035131,168.443277 C152.25,207.843277 154.571895,175.892857 155.401144,166.787815 C163.279003,80.289916 190.727124,26.2390756 170.161765,16.5546218 C149.596405,6.78739496 66.0081699,39.8138655 14.7606209,66.7978992 C0.49754902,76.5651261 -5.55596405,77.6411765 14.5947712,63.652521 L14.5947712,63.652521 Z"></path>
                            <path d="M155.484069,189.302101 C154.903595,189.302101 154.406046,189.053782 153.991422,188.639916 C153.410948,187.977731 151.918301,186.322269 153.742647,166.622269 C156.976716,131.195378 163.444853,101.397059 168.669118,77.4756303 C175.717729,44.7802521 180.444444,23.2592437 169.415441,18.0445378 C167.176471,16.9684874 164.025327,16.4718487 159.96201,16.4718487 C137.323529,16.4718487 77.2030229,35.8407563 15.6727941,68.2878151 C12.9362745,70.1088235 4.39501634,75.9029412 1.99019608,75.9029412 C1.16094771,75.9029412 0.414624183,75.4063025 0.165849673,74.6613445 C-0.24877451,73.4197479 -0.580473856,72.3436975 13.7655229,62.4109244 C68.495915,27.6462185 142.713644,0.662184874 170.161765,0.662184874 C174.971405,0.662184874 178.288399,1.40714286 180.36152,3.06260504 C184.922386,6.53907563 184.590686,21.6037815 183.761438,34.3508403 C182.849265,48.4222689 180.693219,67.2945378 177.210376,90.4710084 C171.322712,129.871008 163.776552,168.52605 163.693627,168.939916 L163.693627,169.022689 C162.035131,175.810084 160.542484,180.859244 159.464461,184.170168 C157.888889,187.977731 156.976716,189.302101 155.484069,189.302101 L155.484069,189.302101 L155.484069,189.302101 Z M159.96201,13.0781513 C164.522876,13.0781513 168.171569,13.7403361 170.825163,14.9819328 C184.176062,21.2726891 179.532271,42.7109244 171.903186,78.1378151 C166.761846,101.976471 160.293709,131.692017 157.059641,166.953361 C156.479167,173.492437 156.147467,179.369328 156.230392,183.011345 C157.142565,180.445378 158.469363,175.97563 160.459559,168.112185 C160.708333,166.622269 168.171569,128.629412 173.976307,89.8088235 C184.590686,18.7894958 180.610294,7.2012605 178.371324,5.54579832 C177.376225,4.80084034 175.137255,3.89033613 170.161765,3.89033613 C143.874592,3.89033613 73.7201797,29.2189076 20.0678105,62.3281513 C61.7790033,40.889916 129.113971,13.0781513 159.96201,13.0781513 L159.96201,13.0781513 Z"></path>
                        </g>
                        <g transform="translate(24.877451, 28.142857)" id="Shape">
                            <path d="M150.342729,3.72478992 C127.289624,43.1247899 97.2708333,86.1668067 61.1156046,114.806303 C40.5502451,131.112605 18.4922386,96.7617647 9.12173203,82.607563 C7.21446078,79.7105042 5.39011438,77.0617647 2.15604575,75.8201681 C1.74142157,78.7172269 3.48284314,80.6210084 5.39011438,83.2697479 C13.8484477,95.1890756 23.4677288,107.522269 35.5747549,115.965126 C50.8329248,126.642857 61.6960784,124.490756 74.8811275,111.909244 C107.387663,80.7865546 138.484477,47.2634454 153.991422,4.22142857 C155.484069,0.165546218 150.342729,3.72478992 150.342729,3.72478992 L150.342729,3.72478992 Z"></path>
                            <path d="M53.4865196,124.573529 L53.4865196,124.573529 C47.681781,124.573529 41.4624183,122.255882 34.5796569,117.455042 C22.306781,108.929412 12.6045752,96.5134454 3.98039216,84.3457983 C3.81454248,84.0147059 3.56576797,83.7663866 3.3999183,83.5180672 C1.74142157,81.2004202 0.0829248366,78.9655462 0.49754902,75.737395 L0.746323529,73.6680672 L2.65359477,74.3302521 C6.46813725,75.737395 8.62418301,78.8827731 10.4485294,81.6970588 L11.1119281,82.6903361 C18.5751634,93.947479 34.1650327,117.455042 49.5890523,117.455042 L49.5890523,117.455042 C53.2377451,117.455042 56.7205882,116.130672 60.0375817,113.481933 C89.9734477,89.7260504 119.826389,52.4781513 148.850082,2.81428571 L148.933007,2.6487395 L149.098856,2.48319328 C149.264706,2.31764706 151.669526,0.579411765 153.493873,0.579411765 C154.323121,0.579411765 154.98652,0.910504202 155.484069,1.57268908 C156.230392,2.6487395 155.898693,3.97310924 155.566993,4.88361345 C139.977124,48.0911765 108.133987,82.5247899 76.0420752,113.15084 C67.7495915,121.097059 60.8668301,124.573529 53.4865196,124.573529 L53.4865196,124.573529 Z M49.2573529,120.848739 C50.6670752,121.179832 52.1597222,121.345378 53.4865196,121.345378 L53.4865196,121.345378 C59.9546569,121.345378 66.1740196,118.117227 73.7201797,110.915966 C110.207108,75.9857143 137.572304,44.5319328 152.167075,4.63529412 C152.001225,4.71806723 151.752451,4.88361345 151.586601,4.96638655 C122.397059,54.7957983 92.2953431,92.2920168 62.1936275,116.213445 C58.1303105,119.358824 53.7352941,120.931513 49.2573529,120.848739 L49.2573529,120.848739 Z M4.64379085,79.544958 C4.9754902,80.1243697 5.47303922,80.7865546 6.05351307,81.5315126 C6.21936275,81.7798319 6.46813725,82.1109244 6.71691176,82.4420168 C7.79493464,84.0147059 8.87295752,85.5046218 10.0339052,87.0773109 C9.45343137,86.2495798 8.95588235,85.4218487 8.3754085,84.6768908 L7.7120098,83.6836134 C6.71691176,82.1109244 5.80473856,80.7037815 4.64379085,79.544958 L4.64379085,79.544958 Z"></path>
                        </g>
                        <g transform="translate(0.000000, 149.819328)" id="Shape">
                            <path d="M149.015931,34.0197479 C48.7598039,10.8432773 39.7209967,49.0844538 12.6875,24.8319328 C3.3999183,16.637395 4.89256536,6.53907563 4.89256536,6.53907563 C5.30718954,-2.6487395 1.90727124,3.5592437 2.4877451,6.78739496 C2.4877451,6.78739496 2.07312092,21.4382353 14.5118464,30.6260504 C43.9501634,47.3462185 30.1017157,28.805042 159.464461,39.4827731 C165.600899,39.4 149.015931,34.0197479 149.015931,34.0197479 L149.015931,34.0197479 Z"></path>
                            <path d="M159.381536,41.1382353 L159.381536,41.1382353 C130.938317,38.8205882 106.143791,37.5789916 85.6613562,37.5789916 C68.1642157,37.5789916 56.9693627,38.4067227 48.8427288,38.9861345 C44.1989379,39.3172269 40.6331699,39.5655462 37.3991013,39.5655462 C29.438317,39.5655462 24.1311275,37.910084 13.7655229,32.0331933 L13.5996732,31.9504202 C1.16094771,22.762605 0.829248366,8.69117647 0.829248366,6.87016807 C0.49754902,4.71806723 1.32679739,2.06932773 2.32189542,0.910504202 C2.98529412,0.165546218 3.64869281,6.4659389e-14 4.06331699,6.4659389e-14 C4.64379085,6.4659389e-14 5.14133987,0.248319328 5.55596405,0.662184874 C6.13643791,1.32436975 6.71691176,2.48319328 6.55106209,6.62184874 L6.55106209,6.78739496 C6.46813725,7.2012605 5.30718954,16.2235294 13.7655229,23.5903361 C20.1507353,29.3016807 25.4579248,31.6193277 32.2577614,31.6193277 L32.2577614,31.6193277 C36.8186275,31.6193277 41.7941176,30.6260504 48.0134804,29.3016807 C57.9644608,27.2323529 70.4031863,24.6663866 88.4808007,24.6663866 C106.558415,24.6663866 126.460376,27.2323529 149.347631,32.5298319 L149.51348,32.5298319 C162.864379,36.8340336 162.698529,38.0756303 162.449755,39.4 C162.20098,41.0554622 160.127859,41.1382353 159.381536,41.1382353 L159.381536,41.1382353 L159.381536,41.1382353 Z M85.6613562,34.2680672 C104.816993,34.2680672 127.538399,35.2613445 153.493873,37.3306723 C151.918301,36.7512605 150.176879,36.1718487 148.601307,35.6752101 C126.045752,30.4605042 106.392565,27.8945378 88.5637255,27.8945378 C70.7348856,27.8945378 58.5449346,30.4605042 48.7598039,32.5298319 C42.5404412,33.8542017 37.2332516,34.9302521 32.2577614,34.9302521 L32.2577614,34.9302521 C29.5212418,34.9302521 26.9505719,34.5991597 24.4628268,33.8542017 C29.0236928,35.7579832 32.6723856,36.337395 37.3991013,36.337395 C40.4673203,36.337395 44.0330882,36.0890756 48.5939542,35.7579832 C56.8035131,35.0957983 68.0812908,34.2680672 85.6613562,34.2680672 L85.6613562,34.2680672 Z M15.4240196,29.2189076 C15.5069444,29.3016807 15.6727941,29.3844538 15.755719,29.3844538 C15.1752451,28.9705882 14.5947712,28.5567227 14.0142974,28.060084 C14.5118464,28.5567227 14.9264706,28.8878151 15.4240196,29.2189076 L15.4240196,29.2189076 Z"></path>
                        </g>
                    </g>
                </g>
            </g>
        </g>
    </g>
</svg>
