<?xml version="1.0" encoding="UTF-8" standalone="no"?>
<svg width="69px" height="58px" viewBox="0 0 69 58" version="1.1" xmlns="http://www.w3.org/2000/svg" xmlns:xlink="http://www.w3.org/1999/xlink" xmlns:sketch="http://www.bohemiancoding.com/sketch/ns">
    <!-- Generator: Sketch 3.4.4 (17249) - http://www.bohemiancoding.com/sketch -->
    <title>Group</title>
    <desc>Created with Sketch.</desc>
    <defs></defs>
    <g id="Page-1" stroke="none" stroke-width="1" fill="none" fill-rule="evenodd" sketch:type="MSPage">
        <g id="Duplication" sketch:type="MSArtboardGroup" transform="translate(-334.000000, -360.000000)">
            <g id="Group" sketch:type="MSLayerGroup" transform="translate(152.000000, 163.000000)">
                <g transform="translate(183.000000, 197.000000)" sketch:type="MSShapeGroup">
                    <path d="M33.738625,0 C28.855375,0 25.10475,0.582691087 22.2073125,1.47408059 C19.267375,2.37916972 17.2114375,3.60300366 15.782375,4.87432967 C12.4939375,7.80148474 12.488625,10.959707 12.488625,10.959707 L14.613625,45.6654457 L27.363625,45.6654457 L27.363625,13.8576361 C31.0165,15.0522442 35.7308125,15.7089133 40.113625,16.0623639 L40.113625,45.6654457 L52.863625,45.6654457 L54.988625,10.959707 C54.988625,10.959707 54.988625,0 33.738625,0" id="Fill-546" fill="#692E19"></path>
                    <path d="M33.738625,0 C28.855375,0 25.10475,0.582691087 22.2073125,1.47408059 C19.267375,2.37916972 17.2114375,3.60300366 15.782375,4.87432967 C12.4939375,7.80148474 12.488625,10.959707 12.488625,10.959707 L14.613625,45.6654457 L27.363625,45.6654457 L27.363625,13.8576361 C29.2655,14.4795995 31.4574375,14.9536068 33.738625,15.3171038 L33.738625,0 Z" id="Fill-547" fill="#84462D"></path>
                    <path d="M33.738625,42.01221 L26.301125,41.0989011 L9.0450625,44.6352332 C6.525875,45.2855092 4.498625,46.9011526 3.5540625,49.0108962 L-0.261375,57.5384615 L33.738625,57.5384615 L33.738625,42.01221 Z" id="Fill-548" fill="#3E3E3F"></path>
                    <path d="M33.738625,42.01221 L41.176125,41.0989011 L58.4321875,44.6352332 C60.951375,45.2855092 62.978625,46.9011526 63.9231875,49.0108962 L67.738625,57.5384615 L33.738625,57.5384615 L33.738625,42.01221 Z" id="Fill-549" fill="#3E3E3F"></path>
                    <path d="M23.113625,34.1875272 L23.113625,46.5783893 L31.613625,57.5380962 L33.738625,57.5380962 L33.738625,41.0985358 C30.249375,40.0993758 26.1321875,38.2024332 23.113625,34.1875272" id="Fill-550" fill="#FBC8C8"></path>
                    <path d="M33.738625,41.0989011 L33.738625,57.5384615 L35.863625,57.5384615 L44.363625,46.5787546 L44.363625,34.1878926 C41.3450625,38.2027985 37.227875,40.0988278 33.738625,41.0989011" id="Fill-551" fill="#F8B4B4"></path>
                    <path d="M49.676125,19.1794872 L48.6125625,19.1794872 C48.6125625,19.173094 48.613625,19.1667009 48.613625,19.1603077 C48.6115,18.2415189 48.5945,17.3355165 48.549875,16.4496068 C39.969125,16.3272234 21.5336875,15.270525 21.0205,8.50381929 C19.1388125,11.3350769 18.8731875,15.1326154 18.863625,19.1603077 L18.863625,19.1794872 L17.801125,19.1794872 C16.738625,19.1794872 15.676125,20.1941734 15.676125,21.2088596 C15.676125,24.0318974 16.594125,27.7216654 20.11525,28.2440781 C22.709875,36.5570159 28.846875,39.6969719 33.738625,41.0989011 C38.6293125,39.6969719 44.767375,36.5570159 47.362,28.2440781 C50.883125,27.7216654 51.801125,24.0318974 51.801125,21.2088596 C51.801125,20.1941734 50.738625,19.1794872 49.676125,19.1794872" id="Fill-552" fill="#FBC8C8"></path>
                    <path d="M21.0202875,8.50381929 C19.1386,11.3350769 18.872975,15.1326154 18.8634125,19.1603077 C18.8634125,19.1667009 18.864475,19.173094 18.864475,19.1794872 L17.8009125,19.1794872 C16.7384125,19.1794872 15.6759125,20.1941734 15.6759125,21.2088596 C15.6759125,24.0318974 16.5939125,27.7216654 20.1150375,28.2440781 C22.7096625,36.5570159 28.847725,39.6969719 33.7384125,41.0989011 L33.7384125,15.3198437 C27.1317875,14.2686252 21.3061,12.2693919 21.0202875,8.50381929" id="Fill-553" fill="#FBD7D7"></path>
                    <path d="M28.426125,31.0525031 L39.051125,31.0525031 C39.051125,31.0525031 39.051125,33.7924298 33.738625,33.7924298 C28.426125,33.7924298 28.426125,31.0525031 28.426125,31.0525031" id="Fill-554" fill="#F89392"></path>
                    <path d="M23.1020438,36.5323565 L25.2387312,46.5787546 L33.7387312,57.5384615 L31.6137312,57.5384615 L17.8012312,50.2319902 L22.0512312,45.6654457 L12.4887312,43.8388278 L23.1020438,36.5323565 Z" id="Fill-555" fill="#FFFFFF"></path>
                    <path d="M44.3752063,36.5323565 L42.2385188,46.5787546 L33.7385188,57.5384615 L35.8635188,57.5384615 L49.6760188,50.2319902 L45.4260188,45.6654457 L54.9885188,43.8388278 L44.3752063,36.5323565 Z" id="Fill-556" fill="#FFFFFF"></path>
                    <path d="M30.551125,21.006105 C30.551125,19.997812 29.599125,19.1794872 28.426125,19.1794872 L28.41975,19.1794872 C28.4208125,19.1986667 28.426125,19.2178462 28.426125,19.2370256 C28.426125,20.2434921 27.478375,21.0599902 26.3075,21.0627302 C26.343625,22.0445372 27.274375,22.8327228 28.426125,22.8327228 C29.599125,22.8327228 30.551125,22.014398 30.551125,21.006105" id="Fill-557" fill="#3E3E3F"></path>
                    <path d="M41.1694312,21.006105 C41.1694312,19.997812 40.2174313,19.1794872 39.0444312,19.1794872 L39.0380563,19.1794872 C39.0391188,19.1986667 39.0444312,19.2178462 39.0444312,19.2370256 C39.0444312,20.2434921 38.0966812,21.0599902 36.9258062,21.0627302 C36.9608687,22.0445372 37.8937438,22.8327228 39.0444312,22.8327228 C40.2174313,22.8327228 41.1694312,22.014398 41.1694312,21.006105" id="Fill-558" fill="#3E3E3F"></path>
                    <path d="M51.2688125,30.616672 C50.5930625,31.1975365 49.4965625,31.1975365 48.8208125,30.616672 C48.1450625,30.0358076 48.1450625,29.0932728 48.8208125,28.5124083 C49.4965625,27.9315438 50.5930625,27.9315438 51.2688125,28.5124083 C51.9445625,29.0932728 51.9445625,30.0358076 51.2688125,30.616672" id="Fill-559" fill="#FBE158"></path>
                    <path d="M18.3566,30.616672 C17.68085,31.1975365 16.58435,31.1975365 15.9086,30.616672 C15.23285,30.0358076 15.23285,29.0932728 15.9086,28.5124083 C16.58435,27.9315438 17.68085,27.9315438 18.3566,28.5124083 C19.03235,29.0932728 19.03235,30.0358076 18.3566,30.616672" id="Fill-560" fill="#FBE158"></path>
                </g>
            </g>
        </g>
    </g>
</svg>
