<?xml version="1.0" encoding="UTF-8" standalone="no"?>
<svg width="64px" height="55px" viewBox="0 0 64 55" version="1.1" xmlns="http://www.w3.org/2000/svg" xmlns:xlink="http://www.w3.org/1999/xlink" xmlns:sketch="http://www.bohemiancoding.com/sketch/ns">
    <!-- Generator: Sketch 3.4.4 (17249) - http://www.bohemiancoding.com/sketch -->
    <title>Groupother3</title>
    <desc>Created with Sketch.</desc>
    <defs></defs>
    <g id="Page-1" stroke="none" stroke-width="1" fill="none" fill-rule="evenodd" sketch:type="MSPage">
        <g id="Duplication" sketch:type="MSArtboardGroup" transform="translate(-460.000000, -361.000000)">
            <g id="Group" sketch:type="MSLayerGroup" transform="translate(152.000000, 163.000000)">
                <g transform="translate(307.000000, 198.000000)" sketch:type="MSShapeGroup">
                    <path d="M47.8348406,15.1724138 C46.8395281,15.1724138 46.8395281,16.2259483 46.8395281,16.2259483 L46.8395281,16.1206897 L45.8442156,17.0689655 C45.8442156,-2.13162821e-14 41.8629656,5.68965517 32.9051531,5.68965517 C23.9473406,5.68965517 19.9660906,-2.13162821e-14 19.9660906,17.0689655 L18.9707781,16.1206897 L18.9707781,22.7557759 L22.9520281,32.2385345 L28.0330984,36.0278448 C28.5994312,36.6337931 29.4106109,36.9799138 30.2625984,36.9799138 L32.9051531,36.9799138 L35.5477078,36.9799138 C36.3996953,36.9799138 37.210875,36.6337931 37.7772078,36.0278448 L42.8582781,32.2385345 L46.04925,24.6371552 C48.8719562,24.4427586 49.8254656,20.3651724 49.8254656,17.2794828 C49.8254656,16.2259483 48.8301531,15.1724138 47.8348406,15.1724138" id="Fill-1352" fill="#BF8662"></path>
                    <path d="M19.9660906,17.0689655 L18.9707781,16.1206897 L18.9707781,16.2259483 C18.9707781,16.2259483 18.9707781,15.1724138 17.9754656,15.1724138 C16.9801531,15.1724138 15.9848406,16.2259483 15.9848406,17.2794828 C15.9848406,20.3651724 16.93835,24.4427586 19.7600609,24.6371552 L22.9520281,32.2385345 L28.0330984,36.0278448 C28.5994312,36.6337931 29.4106109,36.9799138 30.2625984,36.9799138 L32.9051531,36.9799138 L32.9051531,5.68965517 C23.9473406,5.68965517 19.9660906,-3.28626015e-14 19.9660906,17.0689655" id="Fill-1353" fill="#CC9978"></path>
                    <path d="M32.9051531,0 C20.9614031,0 17.9754656,6.63793103 18.9707781,16.1206897 L19.9660906,17.0689655 C19.9660906,0 23.9473406,5.68965517 32.9051531,5.68965517 C41.8629656,5.68965517 45.8442156,0 45.8442156,17.0689655 L46.8395281,16.1206897 C47.8348406,6.63793103 44.8489031,0 32.9051531,0" id="Fill-1354" fill="#692E19"></path>
                    <path d="M18.9707781,16.1206897 L19.9660906,17.0689655 C19.9660906,0 23.9473406,5.68965517 32.9051531,5.68965517 L32.9051531,0 C20.9614031,0 17.9754656,6.63793103 18.9707781,16.1206897" id="Fill-1355" fill="#84462D"></path>
                    <path d="M60.7739031,44.5347328 C60.1617859,43.270681 59.0838625,42.2636121 57.7451672,41.7060259 L45.8442156,37.8968017 L32.9051531,37.8968017 L19.9660906,37.8968017 L8.06513906,41.7060259 C6.72644375,42.2636121 5.64852031,43.270681 5.03640312,44.5347328 L1.05515312,54.9657672 L64.7551531,54.9657672 L60.7739031,44.5347328 Z" id="Fill-1356" fill="#FFFFFF"></path>
                    <path d="M49.8254656,52.1893103 L54.8020281,52.1893103 L54.8020281,49.3444828 L49.8254656,49.3444828 L49.8254656,52.1893103 Z" id="Fill-1357" fill="#FBE158"></path>
                    <path d="M41.8629656,52.1893103 L46.8395281,52.1893103 L46.8395281,49.3444828 L41.8629656,49.3444828 L41.8629656,52.1893103 Z" id="Fill-1358" fill="#FBE158"></path>
                    <path d="M7.02702812,49.3445776 L3.21398594,49.3445776 L2.48939844,51.2411293 L2.1281,52.1894052 L7.02702812,52.1894052 L7.02702812,49.3445776 Z" id="Fill-1359" fill="#FBE158"></path>
                    <path d="M33.9004656,52.1893103 L38.8770281,52.1893103 L38.8770281,49.3444828 L33.9004656,49.3444828 L33.9004656,52.1893103 Z" id="Fill-1360" fill="#FBE158"></path>
                    <path d="M10.0129656,52.1893103 L14.9895281,52.1893103 L14.9895281,49.3444828 L10.0129656,49.3444828 L10.0129656,52.1893103 Z" id="Fill-1361" fill="#FBE158"></path>
                    <path d="M17.9754656,52.1893103 L22.9520281,52.1893103 L22.9520281,49.3444828 L17.9754656,49.3444828 L17.9754656,52.1893103 Z" id="Fill-1362" fill="#FBE158"></path>
                    <path d="M25.9379656,52.1893103 L30.9145281,52.1893103 L30.9145281,49.3444828 L25.9379656,49.3444828 L25.9379656,52.1893103 Z" id="Fill-1363" fill="#FBE158"></path>
                    <path d="M57.7879656,49.3445776 L57.7879656,52.1894052 L63.6822062,52.1894052 L63.3209078,51.2411293 L62.5963203,49.3445776 L57.7879656,49.3445776 Z" id="Fill-1364" fill="#FBE158"></path>
                    <path d="M38.8770281,42.7065517 L33.9004656,42.7065517 L33.9004656,45.5513793 L38.8770281,45.5513793 L38.8770281,42.7065517 Z" id="Fill-1365" fill="#FBE158"></path>
                    <path d="M54.8020281,42.7065517 L49.8254656,42.7065517 L49.8254656,45.5513793 L54.8020281,45.5513793 L54.8020281,42.7065517 Z" id="Fill-1366" fill="#FBE158"></path>
                    <path d="M7.02702812,42.7066466 L6.51344687,42.7066466 C5.86748906,43.2519052 5.35191719,43.9175948 5.03640312,44.5690603 L4.66117031,45.5514741 L7.02702812,45.5514741 L7.02702812,42.7066466 Z" id="Fill-1367" fill="#FBE158"></path>
                    <path d="M14.9895281,42.7065517 L10.0129656,42.7065517 L10.0129656,45.5513793 L14.9895281,45.5513793 L14.9895281,42.7065517 Z" id="Fill-1368" fill="#FBE158"></path>
                    <path d="M57.7879656,42.7066466 L57.7879656,45.5514741 L61.1491359,45.5514741 L60.7739031,44.5690603 C60.4583891,43.9175948 59.9428172,43.2519052 59.2968594,42.7066466 L57.7879656,42.7066466 Z" id="Fill-1369" fill="#FBE158"></path>
                    <path d="M46.8395281,42.7065517 L41.8629656,42.7065517 L41.8629656,45.5513793 L46.8395281,45.5513793 L46.8395281,42.7065517 Z" id="Fill-1370" fill="#FBE158"></path>
                    <path d="M30.9145281,42.7065517 L25.9379656,42.7065517 L25.9379656,45.5513793 L30.9145281,45.5513793 L30.9145281,42.7065517 Z" id="Fill-1371" fill="#FBE158"></path>
                    <path d="M22.9520281,42.7065517 L17.9754656,42.7065517 L17.9754656,45.5513793 L22.9520281,45.5513793 L22.9520281,42.7065517 Z" id="Fill-1372" fill="#FBE158"></path>
                    <path d="M7.02702812,55 L10.0129656,55 L10.0129656,52.1893103 L7.02702812,52.1893103 L7.02702812,55 Z" id="Fill-1373" fill="#FACB1B"></path>
                    <path d="M10.0129656,42.7066466 L10.0129656,41.1163879 L8.06513906,41.7403534 C7.69587812,41.8939741 7.35249531,42.089319 7.02702812,42.3074224 L7.02702812,42.7066466 L10.0129656,42.7066466 Z" id="Fill-1374" fill="#FACB1B"></path>
                    <path d="M10.0129656,45.5513793 L7.02702812,45.5513793 L7.02702812,49.3444828 L10.0129656,49.3444828 L10.0129656,45.5513793 Z" id="Fill-1375" fill="#FACB1B"></path>
                    <path d="M14.9895281,49.3444828 L17.9754656,49.3444828 L17.9754656,45.5513793 L14.9895281,45.5513793 L14.9895281,49.3444828 Z" id="Fill-1376" fill="#FACB1B"></path>
                    <path d="M14.9895281,55 L17.9754656,55 L17.9754656,52.1893103 L14.9895281,52.1893103 L14.9895281,55 Z" id="Fill-1377" fill="#FACB1B"></path>
                    <path d="M17.9754656,42.7066466 L17.9754656,38.5683707 L14.9895281,39.5242328 L14.9895281,42.7066466 L17.9754656,42.7066466 Z" id="Fill-1378" fill="#FACB1B"></path>
                    <path d="M22.9520281,55 L25.9379656,55 L25.9379656,52.1893103 L22.9520281,52.1893103 L22.9520281,55 Z" id="Fill-1379" fill="#FACB1B"></path>
                    <path d="M25.9379656,37.9310345 L22.9520281,37.9310345 L22.9520281,42.7065517 L25.9379656,42.7065517 L25.9379656,37.9310345 Z" id="Fill-1380" fill="#FACB1B"></path>
                    <path d="M22.9520281,49.3444828 L25.9379656,49.3444828 L25.9379656,45.5513793 L22.9520281,45.5513793 L22.9520281,49.3444828 Z" id="Fill-1381" fill="#FACB1B"></path>
                    <path d="M30.9145281,55 L33.9004656,55 L33.9004656,52.1893103 L30.9145281,52.1893103 L30.9145281,55 Z" id="Fill-1382" fill="#FACB1B"></path>
                    <path d="M30.9145281,49.3444828 L33.9004656,49.3444828 L33.9004656,45.5513793 L30.9145281,45.5513793 L30.9145281,49.3444828 Z" id="Fill-1383" fill="#FACB1B"></path>
                    <path d="M33.9004656,42.7066466 L33.9004656,37.9311293 L32.9051531,37.9311293 L30.9145281,37.9311293 L30.9145281,42.7066466 L33.9004656,42.7066466 Z" id="Fill-1384" fill="#FACB1B"></path>
                    <path d="M38.8770281,49.3444828 L41.8629656,49.3444828 L41.8629656,45.5513793 L38.8770281,45.5513793 L38.8770281,49.3444828 Z" id="Fill-1385" fill="#FACB1B"></path>
                    <path d="M41.8629656,37.9310345 L38.8770281,37.9310345 L38.8770281,42.7065517 L41.8629656,42.7065517 L41.8629656,37.9310345 Z" id="Fill-1386" fill="#FACB1B"></path>
                    <path d="M38.8770281,55 L41.8629656,55 L41.8629656,52.1893103 L38.8770281,52.1893103 L38.8770281,55 Z" id="Fill-1387" fill="#FACB1B"></path>
                    <path d="M49.8254656,42.7066466 L49.8254656,39.2056121 L46.8395281,38.24975 L46.8395281,42.7066466 L49.8254656,42.7066466 Z" id="Fill-1388" fill="#FACB1B"></path>
                    <path d="M46.8395281,49.3444828 L49.8254656,49.3444828 L49.8254656,45.5513793 L46.8395281,45.5513793 L46.8395281,49.3444828 Z" id="Fill-1389" fill="#FACB1B"></path>
                    <path d="M46.8395281,55 L49.8254656,55 L49.8254656,52.1893103 L46.8395281,52.1893103 L46.8395281,55 Z" id="Fill-1390" fill="#FACB1B"></path>
                    <path d="M57.7879656,52.1893103 L54.8020281,52.1893103 L54.8020281,55 L57.7879656,55 L57.7879656,52.1893103 Z" id="Fill-1391" fill="#FACB1B"></path>
                    <path d="M54.8020281,49.3444828 L57.7879656,49.3444828 L57.7879656,45.5513793 L54.8020281,45.5513793 L54.8020281,49.3444828 Z" id="Fill-1392" fill="#FACB1B"></path>
                    <path d="M57.7879656,42.7066466 L57.7879656,41.7631121 C57.7730359,41.7564741 57.7600969,41.7460431 57.7451672,41.7403534 L54.8020281,40.7977672 L54.8020281,42.7066466 L57.7879656,42.7066466 Z" id="Fill-1393" fill="#FACB1B"></path>
                    <path d="M7.02702812,52.1893103 L10.0129656,52.1893103 L10.0129656,49.3444828 L7.02702812,49.3444828 L7.02702812,52.1893103 Z" id="Fill-1394" fill="#F99134"></path>
                    <path d="M10.0129656,42.7065517 L7.02702812,42.7065517 L7.02702812,45.5513793 L10.0129656,45.5513793 L10.0129656,42.7065517 Z" id="Fill-1395" fill="#F99134"></path>
                    <path d="M14.9895281,52.1893103 L17.9754656,52.1893103 L17.9754656,49.3444828 L14.9895281,49.3444828 L14.9895281,52.1893103 Z" id="Fill-1396" fill="#F99134"></path>
                    <path d="M17.9754656,42.7065517 L14.9895281,42.7065517 L14.9895281,45.5513793 L17.9754656,45.5513793 L17.9754656,42.7065517 Z" id="Fill-1397" fill="#F99134"></path>
                    <path d="M22.9520281,52.1893103 L25.9379656,52.1893103 L25.9379656,49.3444828 L22.9520281,49.3444828 L22.9520281,52.1893103 Z" id="Fill-1398" fill="#F99134"></path>
                    <path d="M25.9379656,42.7065517 L22.9520281,42.7065517 L22.9520281,45.5513793 L25.9379656,45.5513793 L25.9379656,42.7065517 Z" id="Fill-1399" fill="#F99134"></path>
                    <path d="M30.9145281,52.1893103 L33.9004656,52.1893103 L33.9004656,49.3444828 L30.9145281,49.3444828 L30.9145281,52.1893103 Z" id="Fill-1400" fill="#F99134"></path>
                    <path d="M33.9004656,42.7065517 L30.9145281,42.7065517 L30.9145281,45.5513793 L33.9004656,45.5513793 L33.9004656,42.7065517 Z" id="Fill-1401" fill="#F99134"></path>
                    <path d="M38.8770281,52.1893103 L41.8629656,52.1893103 L41.8629656,49.3444828 L38.8770281,49.3444828 L38.8770281,52.1893103 Z" id="Fill-1402" fill="#F99134"></path>
                    <path d="M41.8629656,42.7065517 L38.8770281,42.7065517 L38.8770281,45.5513793 L41.8629656,45.5513793 L41.8629656,42.7065517 Z" id="Fill-1403" fill="#F99134"></path>
                    <path d="M46.8395281,52.1893103 L49.8254656,52.1893103 L49.8254656,49.3444828 L46.8395281,49.3444828 L46.8395281,52.1893103 Z" id="Fill-1404" fill="#F99134"></path>
                    <path d="M49.8254656,42.7065517 L46.8395281,42.7065517 L46.8395281,45.5513793 L49.8254656,45.5513793 L49.8254656,42.7065517 Z" id="Fill-1405" fill="#F99134"></path>
                    <path d="M54.8020281,52.1893103 L57.7879656,52.1893103 L57.7879656,49.3444828 L54.8020281,49.3444828 L54.8020281,52.1893103 Z" id="Fill-1406" fill="#F99134"></path>
                    <path d="M57.7879656,42.7065517 L54.8020281,42.7065517 L54.8020281,45.5513793 L57.7879656,45.5513793 L57.7879656,42.7065517 Z" id="Fill-1407" fill="#F99134"></path>
                    <path d="M35.5475087,36.9800086 L32.9049541,36.9800086 L30.2623994,36.9800086 C29.4104119,36.9800086 28.5992322,36.6338879 28.0338947,36.0279397 L22.9518291,32.2386293 L22.9518291,40.7759569 C22.9518291,40.7759569 24.9424541,44.5690603 32.9049541,44.5690603 C40.8674541,44.5690603 42.8580791,40.7759569 42.8580791,40.7759569 L42.8580791,32.2386293 L37.7770087,36.0279397 C37.2106759,36.6338879 36.3994962,36.9800086 35.5475087,36.9800086" id="Fill-1408" fill="#AF7653"></path>
                    <path d="M2.12770187,52.1894052 L2.12770187,52.1894052 L2.48999562,51.2411293 L2.12770187,52.1894052 Z" id="Fill-1409" fill="#40C9E7"></path>
                    <path d="M4.66117031,45.5514741 L4.66117031,45.5514741 L5.03640312,44.5690603 L4.66117031,45.5514741 Z" id="Fill-1410" fill="#40C9E7"></path>
                    <path d="M32.9051531,47.4137931 C36.7440734,47.4137931 45.8442156,46.4655172 45.8442156,40.7758621 L45.8442156,37.8627586 L42.8582781,37.8627586 L42.8582781,40.7758621 C42.8582781,40.7758621 40.8676531,44.5689655 32.9051531,44.5689655 C24.9426531,44.5689655 22.9520281,40.7758621 22.9520281,40.7758621 L22.9520281,37.8627586 L19.9660906,37.8627586 L19.9660906,40.7758621 C19.9660906,46.4655172 29.0662328,47.4137931 32.9051531,47.4137931" id="Fill-1411" fill="#FFFFFF"></path>
                    <path d="M28.0335961,36.0275603 L22.9525258,32.23825 L22.9525258,40.7755776 C22.9525258,40.7755776 24.9431508,44.568681 32.9056508,44.568681 L32.9056508,36.9796293 L30.2630961,36.9796293 C29.4111086,36.9796293 28.5999289,36.6335086 28.0335961,36.0275603" id="Fill-1412" fill="#BF8662"></path>
                    <path d="M29.9192156,17.0661207 C29.9192156,16.0192241 29.0274156,15.169569 27.9285906,15.169569 C27.9266,15.169569 27.9246094,15.1705172 27.9226187,15.1705172 C27.9733797,16.2117241 27.082575,17.122069 25.9439375,17.1249138 C25.9777781,18.1443103 26.8496719,18.9626724 27.9285906,18.9626724 C29.0274156,18.9626724 29.9192156,18.1139655 29.9192156,17.0661207" id="Fill-1413" fill="#3E3E3F"></path>
                    <path d="M39.8660702,17.0661207 C39.8660702,16.0192241 38.9742702,15.169569 37.8754452,15.169569 C37.8734545,15.169569 37.8714639,15.1705172 37.8694733,15.1705172 C37.9202342,16.2117241 37.0294295,17.122069 35.890792,17.1249138 C35.9236373,18.1443103 36.7975217,18.9626724 37.8754452,18.9626724 C38.9742702,18.9626724 39.8660702,18.1139655 39.8660702,17.0661207" id="Fill-1414" fill="#3E3E3F"></path>
                    <path d="M34.8957781,31.2931034 L33.9004656,30.3448276 L32.9051531,30.3448276 L31.9098406,30.3448276 L30.9145281,31.2931034 L28.9239031,31.2931034 L27.7464484,29.4240517 C27.3781828,28.8380172 27.3682297,28.1087931 27.7215656,27.5142241 C28.0749016,26.9196552 28.7367844,26.5517241 29.4534094,26.5517241 L32.9051531,26.5517241 L36.3568969,26.5517241 C37.0735219,26.5517241 37.7354047,26.9196552 38.0887406,27.5142241 C38.4420766,28.1087931 38.4321234,28.8380172 38.0638578,29.4240517 L36.8864031,31.2931034 L34.8957781,31.2931034 Z M32.9051531,23.7068966 C32.9051531,23.7068966 26.9332781,23.7068966 23.9473406,25.6034483 C23.9473406,32.2413793 28.9239031,36.9827586 28.9239031,36.9827586 L32.9051531,38.8793103 L36.8864031,36.9827586 C36.8864031,36.9827586 41.8629656,32.2413793 41.8629656,25.6034483 C38.8770281,23.7068966 32.9051531,23.7068966 32.9051531,23.7068966 L32.9051531,23.7068966 Z" id="Fill-1415" fill="#692E19"></path>
                    <path d="M31.9098406,30.3448276 L30.9145281,31.2931034 L28.9239031,31.2931034 L27.7464484,29.4240517 C27.3781828,28.8380172 27.3682297,28.1087931 27.7215656,27.5142241 C28.0749016,26.9196552 28.7367844,26.5517241 29.4534094,26.5517241 L32.9051531,26.5517241 L32.9051531,23.7068966 C32.9051531,23.7068966 26.9332781,23.7068966 23.9473406,25.6034483 C23.9473406,32.2413793 28.9239031,36.9827586 28.9239031,36.9827586 L32.9051531,38.8793103 L32.9051531,30.3448276 L31.9098406,30.3448276 Z" id="Fill-1416" fill="#84462D"></path>
                </g>
            </g>
        </g>
    </g>
</svg>
