<?xml version="1.0" encoding="UTF-8" standalone="no"?>
<svg width="73px" height="60px" viewBox="0 0 73 60" version="1.1" xmlns="http://www.w3.org/2000/svg" xmlns:xlink="http://www.w3.org/1999/xlink" xmlns:sketch="http://www.bohemiancoding.com/sketch/ns">
    <!-- Generator: Sketch 3.4.4 (17249) - http://www.bohemiancoding.com/sketch -->
    <title>Group</title>
    <desc>Created with Sketch.</desc>
    <defs></defs>
    <g id="Page-1" stroke="none" stroke-width="1" fill="none" fill-rule="evenodd" sketch:type="MSPage">
        <g id="Duplication" sketch:type="MSArtboardGroup" transform="translate(-210.000000, -358.000000)">
            <g id="Group" sketch:type="MSLayerGroup" transform="translate(152.000000, 163.000000)">
                <g transform="translate(59.000000, 195.000000)" sketch:type="MSShapeGroup">
                    <path d="M71.72325,60.0028525 L67.22325,49.1831803 C66.531375,47.8720328 65.313,46.8284262 63.799875,46.249082 L49.22325,41.3143279 L35.72325,60.0028525 L71.72325,60.0028525 Z" id="Fill-1689" fill="#3E3E3F"></path>
                    <path d="M35.72325,48.2025246 L35.71425,48.196623 L35.72325,48.196623 L35.73225,48.196623 L35.72325,48.2025246 Z M46.97325,36.3579344 L41.230125,40.2874426 C40.59,40.9159672 39.673125,41.2759672 38.710125,41.2759672 L35.72325,41.2759672 L32.736375,41.2759672 C31.773375,41.2759672 30.8565,40.9159672 30.216375,40.2874426 L24.47325,36.3579344 L24.47325,40.3307213 L22.22325,41.3143279 L35.72325,60.0058033 L49.22325,41.3143279 L46.97325,40.3307213 L46.97325,36.3579344 Z" id="Fill-1690" fill="#F8B4B4"></path>
                    <path d="M-0.27675,60.0028525 L4.22325,49.1831803 C4.915125,47.8720328 6.1335,46.8284262 7.646625,46.249082 L22.22325,41.3143279 L35.72325,60.0028525 L-0.27675,60.0028525 Z" id="Fill-1691" fill="#3E3E3F"></path>
                    <path d="M30.2169375,40.287541 L24.4738125,36.3580328 L24.4738125,40.3308197 L22.2238125,41.3144262 L35.7238125,60.0059016 L35.7238125,48.202623 L35.7148125,48.1967213 L35.7238125,48.1967213 L35.7238125,41.2760656 L32.7369375,41.2760656 C31.7739375,41.2760656 30.8570625,40.9170492 30.2169375,40.287541" id="Fill-1692" fill="#FBC8C8"></path>
                    <path d="M53.6293125,18.9925574 C53.4155625,20.728623 52.7068125,23.6066557 50.3476875,23.6066557 L50.3476875,15.7378033 C50.3476875,15.7378033 49.2226875,19.6722295 44.7226875,19.6722295 L44.7226875,8.85255738 C44.7226875,8.85255738 42.4726875,19.6722295 33.4726875,19.6722295 L33.4726875,12.7869836 C33.4726875,12.7869836 30.0976875,19.6722295 25.5976875,19.6722295 L25.5976875,13.7705902 L21.0976875,18.688623 L21.0976875,23.6066557 C21.0976875,23.6066557 20.5925625,23.308623 19.9726875,22.7204262 L19.9726875,26.5220656 L24.4726875,36.3581311 L30.2169375,40.2876393 C30.8570625,40.9161639 31.7739375,41.2761639 32.7369375,41.2761639 L35.7226875,41.2761639 L38.7095625,41.2761639 C39.6725625,41.2761639 40.5894375,40.9161639 41.2306875,40.2876393 L46.9726875,36.3581311 L50.5648125,28.5069836 C53.7676875,28.3181311 54.8476875,24.0797705 54.8476875,20.8741967 C54.8476875,20.128623 54.3200625,19.390918 53.6293125,18.9925574" id="Fill-1693" fill="#FBC8C8"></path>
                    <path d="M33.47325,12.7868852 C33.47325,12.7868852 30.09825,19.6721311 25.59825,19.6721311 L25.59825,13.7704918 L21.09825,18.6885246 L21.09825,23.6065574 C21.09825,23.6065574 18.455625,22.0603279 17.850375,18.9737705 C17.14275,19.3672131 16.59825,20.1167213 16.59825,20.8740984 C16.59825,24.0796721 17.679375,28.3190164 20.881125,28.5068852 L24.47325,36.3580328 L30.216375,40.287541 C30.8565,40.9170492 31.773375,41.2760656 32.736375,41.2760656 L35.72325,41.2760656 L35.72325,19.4262295 C35.0235,19.582623 34.2765,19.6721311 33.47325,19.6721311 L33.47325,12.7868852 Z" id="Fill-1694" fill="#FBD7D7"></path>
                    <path d="M30.09825,30.4888525 L41.34825,30.4888525 C41.34825,30.4888525 41.34825,33.4396721 35.72325,33.4396721 C30.09825,33.4396721 30.09825,30.4888525 30.09825,30.4888525" id="Fill-1695" fill="#F89392"></path>
                    <path d="M53.72325,17.704918 C53.72325,7.92688525 46.906875,0 35.72325,0 C24.539625,0 17.72325,7.92688525 17.72325,17.704918 C17.72325,21.6393443 21.09825,23.6065574 21.09825,23.6065574 L21.09825,18.6885246 L25.59825,13.7704918 L25.59825,19.6721311 C30.09825,19.6721311 33.47325,12.7868852 33.47325,12.7868852 L33.47325,19.6721311 C42.47325,19.6721311 44.72325,8.85245902 44.72325,8.85245902 L44.72325,19.6721311 C49.22325,19.6721311 50.34825,15.7377049 50.34825,15.7377049 L50.34825,23.6065574 C53.72325,23.6065574 53.72325,17.704918 53.72325,17.704918" id="Fill-1696" fill="#84462D"></path>
                    <path d="M17.72325,17.704918 C17.72325,21.6393443 21.09825,23.6065574 21.09825,23.6065574 L21.09825,18.6885246 L25.59825,13.7704918 L25.59825,19.6721311 C30.09825,19.6721311 33.47325,12.7868852 33.47325,12.7868852 L33.47325,19.6721311 C34.2765,19.6721311 35.0235,19.582623 35.72325,19.4262295 L35.72325,0 C24.539625,0 17.72325,7.92688525 17.72325,17.704918" id="Fill-1697" fill="#9C6144"></path>
                    <path d="M52.5565125,19.129082 C50.2131375,17.6536721 35.7287625,18.6579344 35.7287625,18.6579344 C35.7287625,18.6579344 21.1498875,17.6536721 18.8065125,19.129082 C18.8065125,19.129082 18.7131375,21.0549836 18.8065125,22.0799016 C21.0565125,23.0635082 19.5557625,24.7031803 21.0565125,25.0307213 C22.9318875,25.4408852 30.8530125,26.0143279 32.3065125,25.0307213 C33.8387625,23.9930164 34.5565125,21.0962951 35.6815125,21.0962951 C36.8065125,21.0962951 37.5242625,23.9930164 39.0565125,25.0307213 C40.5100125,26.0143279 48.4311375,25.4408852 50.3065125,25.0307213 C51.8072625,24.7031803 50.3065125,23.0635082 52.5565125,22.0799016 C52.6498875,21.0549836 52.5565125,19.129082 52.5565125,19.129082" id="Fill-1698" fill="#3E3E3F"></path>
                    <path d="M22.0899375,23.7880328 C21.0088125,21.8985246 21.3654375,19.5516393 22.3621875,19.432623 C23.3578125,19.3145902 30.3316875,18.6408197 33.0485625,19.7896721 C34.1319375,20.2470492 32.7324375,24.2316393 31.1461875,24.3821311 C27.7959375,24.6988525 22.6783125,24.8178689 22.0899375,23.7880328" id="Fill-1699" fill="#FACB1B"></path>
                    <path d="M49.673475,23.8691803 C50.7546,21.9796721 50.397975,19.6327869 49.40235,19.5137705 C48.4056,19.3957377 41.431725,18.7219672 38.71485,19.8708197 C37.631475,20.3281967 39.030975,24.3127869 40.617225,24.4632787 C43.967475,24.78 49.0851,24.8990164 49.673475,23.8691803" id="Fill-1700" fill="#FACB1B"></path>
                    <path d="M22.361625,19.4297705 C21.364875,19.5487869 21.009375,21.8956721 22.0905,23.7851803 C22.16475,23.916 22.314375,24.0271475 22.521375,24.1225574 L27.51975,19.1287869 C25.13475,19.1464918 22.89375,19.3668197 22.361625,19.4297705" id="Fill-1701" fill="#FBE158"></path>
                    <path d="M38.67975,19.8499672 C37.674,20.2758689 38.809125,23.7381639 40.246875,24.3509508 L45.38475,19.2165246 C43.00425,19.1368525 40.18725,19.2135738 38.67975,19.8499672" id="Fill-1702" fill="#FBE158"></path>
                </g>
            </g>
        </g>
    </g>
</svg>
