<?xml version="1.0" encoding="UTF-8" standalone="no"?>
<svg width="54px" height="50px" viewBox="0 0 54 50" version="1.1" xmlns="http://www.w3.org/2000/svg" xmlns:xlink="http://www.w3.org/1999/xlink" xmlns:sketch="http://www.bohemiancoding.com/sketch/ns">
    <!-- Generator: Sketch 3.4.4 (17249) - http://www.bohemiancoding.com/sketch -->
    <title>package_large</title>
    <desc>Created with Sketch.</desc>
    <defs></defs>
    <g id="Page-1" stroke="none" stroke-width="1" fill="none" fill-rule="evenodd" sketch:type="MSPage">
        <g id="Group" sketch:type="MSLayerGroup" transform="translate(-35.000000, -1.000000)">
            <g id="package_large" transform="translate(35.000000, 0.000000)" sketch:type="MSShapeGroup">
                <path d="M53.6439474,46.3946842 C53.6439474,48.5150789 51.9259211,50.2331053 49.8055263,50.2331053 L3.92973684,50.2331053 C1.80934211,50.2331053 0.0913157895,48.5150789 0.0913157895,46.3946842 L0.0913157895,4.83784211 C0.0913157895,2.71889474 1.80934211,0.999421053 3.92973684,0.999421053 L49.8055263,0.999421053 C51.9259211,0.999421053 53.6439474,2.71889474 53.6439474,4.83784211 L53.6439474,46.3946842 Z" id="Fill-889" fill="#D0011B"></path>
                <path d="M53.6439474,46.3946842 C53.6439474,48.5150789 51.9259211,50.2331053 49.8055263,50.2331053 L3.92973684,50.2331053 C1.80934211,50.2331053 0.0913157895,48.5150789 0.0913157895,46.3946842 L0.0913157895,4.83784211 C0.0913157895,2.71889474 1.80934211,0.999421053 3.92973684,0.999421053 L49.8055263,0.999421053 C51.9259211,0.999421053 53.6439474,2.71889474 53.6439474,4.83784211 L53.6439474,46.3946842 Z" id="Fill-889-Copy" fill="#00BBC6"></path>
                <path d="M49.8055263,1 L3.92973684,1 C1.80934211,1 0.0913157895,2.71802632 0.0913157895,4.83842105 L0.0913157895,46.3952632 C0.0913157895,47.7644737 0.813552632,48.9571053 1.89184211,49.6373684 L52.1271053,1.80184211 C51.4815789,1.30684211 50.6826316,1 49.8055263,1" id="Fill-890" fill="#F4D0A1"></path>
                <path d="M34.6376842,15.6867368 L30.7992632,11.8483158 L26.9608421,15.6867368 L23.1224211,11.8483158 L19.284,15.6867368 L19.284,1.00028947 L34.6376842,1.00028947 L34.6376842,15.6867368 Z" id="Fill-892" fill="#FCF1E2"></path>
            </g>
        </g>
    </g>
</svg>
