<?xml version="1.0" encoding="UTF-8" standalone="no"?>
<svg width="38px" height="35px" viewBox="0 0 38 35" version="1.1" xmlns="http://www.w3.org/2000/svg" xmlns:xlink="http://www.w3.org/1999/xlink" xmlns:sketch="http://www.bohemiancoding.com/sketch/ns">
    <!-- Generator: Sketch 3.4.4 (17249) - http://www.bohemiancoding.com/sketch -->
    <title>package_medium</title>
    <desc>Created with Sketch.</desc>
    <defs></defs>
    <g id="Page-1" stroke="none" stroke-width="1" fill="none" fill-rule="evenodd" sketch:type="MSPage">
        <g id="Group" sketch:type="MSLayerGroup" transform="translate(-95.000000, -17.000000)">
            <g id="package_medium" transform="translate(95.000000, 17.000000)" sketch:type="MSShapeGroup">
                <path d="M37.754,31.3636 C37.754,32.8286 36.567,34.0156 35.102,34.0156 L3.406,34.0156 C1.941,34.0156 0.754,32.8286 0.754,31.3636 L0.754,2.6516 C0.754,1.1876 1.941,-0.0004 3.406,-0.0004 L35.102,-0.0004 C36.567,-0.0004 37.754,1.1876 37.754,2.6516 L37.754,31.3636 Z" id="Fill-889" fill="#EDBC7C"></path>
                <path d="M37.754,31.3636 C37.754,32.8286 36.567,34.0156 35.102,34.0156 L3.406,34.0156 C1.941,34.0156 0.754,32.8286 0.754,31.3636 L0.754,2.6516 C0.754,1.1876 1.941,-0.0004 3.406,-0.0004 L35.102,-0.0004 C36.567,-0.0004 37.754,1.1876 37.754,2.6516 L37.754,31.3636 Z" id="Fill-889-Copy" fill="#F3785E"></path>
                <path d="M35.102,0 L3.406,0 C1.941,0 0.754,1.187 0.754,2.652 L0.754,31.364 C0.754,32.31 1.253,33.134 1.998,33.604 L36.706,0.554 C36.26,0.212 35.708,0 35.102,0" id="Fill-890" fill="#F4D0A1"></path>
                <path d="M24.6224,10.1472 L21.9704,7.4952 L19.3184,10.1472 L16.6664,7.4952 L14.0144,10.1472 L14.0144,0.0002 L24.6224,0.0002 L24.6224,10.1472 Z" id="Fill-892" fill="#FCF1E2"></path>
            </g>
        </g>
    </g>
</svg>
