<?xml version="1.0" encoding="UTF-8" standalone="no"?>
<svg width="92px" height="92px" viewBox="0 0 92 92" version="1.1" xmlns="http://www.w3.org/2000/svg" xmlns:xlink="http://www.w3.org/1999/xlink" xmlns:sketch="http://www.bohemiancoding.com/sketch/ns">
    <!-- Generator: Sketch 3.4.4 (17249) - http://www.bohemiancoding.com/sketch -->
    <title>Groupbubble5</title>
    <desc>Created with Sketch.</desc>
    <defs></defs>
    <g id="Page-1" stroke="none" stroke-width="1" fill="none" fill-rule="evenodd" sketch:type="MSPage">
        <g id="LeadershipBonus" sketch:type="MSArtboardGroup" transform="translate(-325.000000, -122.000000)">
            <g id="Group" sketch:type="MSLayerGroup" transform="translate(144.000000, 123.000000)">
                <g id="success-Unit-Copy-2" sketch:type="MSShapeGroup">
                    <g id="Group" transform="translate(182.000000, 0.000000)">
                        <circle id="left-bubble" stroke="#FFFFFF" stroke-width="2" fill="#54D0CD" cx="45" cy="45" r="45"></circle>
                        <path d="M45.3500938,27 C42.5494063,27 40.3983125,27.3627114 38.7365469,27.9175802 C37.0504063,28.4809767 35.8712656,29.2427843 35.0516563,30.0341545 C33.1656406,31.8562391 33.1625938,33.8221574 33.1625938,33.8221574 L34.3813438,55.425656 L41.6938438,55.425656 L41.6938438,35.6260496 C43.788875,36.3696647 46.4926719,36.7784257 49.0063438,36.9984402 L49.0063438,55.425656 L56.3188438,55.425656 L57.5375938,33.8221574 C57.5375938,33.8221574 57.5375938,27 45.3500938,27" id="Fill-546" fill="#692E19"></path>
                        <path d="M45.3500938,27 C42.5494063,27 40.3983125,27.3627114 38.7365469,27.9175802 C37.0504063,28.4809767 35.8712656,29.2427843 35.0516563,30.0341545 C33.1656406,31.8562391 33.1625938,33.8221574 33.1625938,33.8221574 L34.3813438,55.425656 L41.6938438,55.425656 L41.6938438,35.6260496 C42.784625,36.013207 44.0417656,36.3082653 45.3500938,36.5345335 L45.3500938,27 Z" id="Fill-547" fill="#84462D"></path>
                        <path d="M45.3500938,53.1516035 L41.0844688,52.5830904 L31.1876094,54.7843732 C29.7427813,55.1891545 28.5800938,56.1948542 28.0383594,57.5081195 L25.8500938,62.8163265 L45.3500938,62.8163265 L45.3500938,53.1516035 Z" id="Fill-548" fill="#3E3E3F"></path>
                        <path d="M45.3500938,53.1516035 L49.6157188,52.5830904 L59.5125781,54.7843732 C60.9574063,55.1891545 62.1200938,56.1948542 62.6618281,57.5081195 L64.8500938,62.8163265 L45.3500938,62.8163265 L45.3500938,53.1516035 Z" id="Fill-549" fill="#3E3E3F"></path>
                        <path d="M39.2563438,48.2809242 L39.2563438,55.9939417 L44.1313438,62.8160991 L45.3500938,62.8160991 L45.3500938,52.582863 C43.3489063,51.9609096 40.9875781,50.7801079 39.2563438,48.2809242" id="Fill-550" fill="#FBC8C8"></path>
                        <path d="M45.3500938,52.5830904 L45.3500938,62.8163265 L46.5688438,62.8163265 L51.4438438,55.9941691 L51.4438438,48.2811516 C49.7126094,50.7803353 47.3512813,51.9605685 45.3500938,52.5830904" id="Fill-551" fill="#F8B4B4"></path>
                        <path d="M54.4907188,38.9387755 L53.8807344,38.9387755 C53.8807344,38.9347959 53.8813438,38.9308163 53.8813438,38.9268367 C53.880125,38.3549125 53.870375,37.7909475 53.8447813,37.2394898 C48.9234688,37.163309 38.3502031,36.5055394 38.055875,32.2934257 C36.9766719,34.0558163 36.8243281,36.4196939 36.8188438,38.9268367 L36.8188438,38.9387755 L36.2094688,38.9387755 C35.6000938,38.9387755 34.9907188,39.5703936 34.9907188,40.2020117 C34.9907188,41.9592857 35.5172188,44.2560787 37.5366875,44.5812682 C39.0247813,49.7558746 42.5445313,51.7104227 45.3500938,52.5830904 C48.1550469,51.7104227 51.6754063,49.7558746 53.1635,44.5812682 C55.1829688,44.2560787 55.7094688,41.9592857 55.7094688,40.2020117 C55.7094688,39.5703936 55.1000938,38.9387755 54.4907188,38.9387755" id="Fill-552" fill="#FBC8C8"></path>
                        <path d="M38.0557531,32.2934257 C36.97655,34.0558163 36.8242062,36.4196939 36.8187219,38.9268367 C36.8187219,38.9308163 36.8193312,38.9347959 36.8193312,38.9387755 L36.2093469,38.9387755 C35.5999719,38.9387755 34.9905969,39.5703936 34.9905969,40.2020117 C34.9905969,41.9592857 35.5170969,44.2560787 37.5365656,44.5812682 C39.0246594,49.7558746 42.5450187,51.7104227 45.3499719,52.5830904 L45.3499719,36.5362391 C41.5608781,35.8818805 38.219675,34.6374052 38.0557531,32.2934257" id="Fill-553" fill="#FBD7D7"></path>
                        <path d="M42.3032188,46.3294461 L48.3969688,46.3294461 C48.3969688,46.3294461 48.3969688,48.0349854 45.3500938,48.0349854 C42.3032188,48.0349854 42.3032188,46.3294461 42.3032188,46.3294461" id="Fill-554" fill="#F89392"></path>
                        <path d="M39.2497016,49.7405248 L40.4751547,55.9941691 L45.3501547,62.8163265 L44.1314047,62.8163265 L36.2095297,58.2682216 L38.6470297,55.425656 L33.1626547,54.2886297 L39.2497016,49.7405248 Z" id="Fill-555" fill="#FFFFFF"></path>
                        <path d="M51.4504859,49.7405248 L50.2250328,55.9941691 L45.3500328,62.8163265 L46.5687828,62.8163265 L54.4906578,58.2682216 L52.0531578,55.425656 L57.5375328,54.2886297 L51.4504859,49.7405248 Z" id="Fill-556" fill="#FFFFFF"></path>
                        <path d="M43.5219688,40.0758017 C43.5219688,39.4481633 42.9759688,38.9387755 42.3032188,38.9387755 L42.2995625,38.9387755 C42.3001719,38.9507143 42.3032188,38.9626531 42.3032188,38.9745918 C42.3032188,39.6010933 41.7596563,40.109344 41.088125,40.1110496 C41.1088438,40.7222012 41.6426563,41.212828 42.3032188,41.212828 C42.9759688,41.212828 43.5219688,40.7034402 43.5219688,40.0758017" id="Fill-557" fill="#3E3E3F"></path>
                        <path d="M49.6118797,40.0758017 C49.6118797,39.4481633 49.0658797,38.9387755 48.3931297,38.9387755 L48.3894734,38.9387755 C48.3900828,38.9507143 48.3931297,38.9626531 48.3931297,38.9745918 C48.3931297,39.6010933 47.8495672,40.109344 47.1780359,40.1110496 C47.1981453,40.7222012 47.7331766,41.212828 48.3931297,41.212828 C49.0658797,41.212828 49.6118797,40.7034402 49.6118797,40.0758017" id="Fill-558" fill="#3E3E3F"></path>
                        <path d="M55.4041719,46.0581516 C55.0166094,46.4197259 54.3877344,46.4197259 54.0001719,46.0581516 C53.6126094,45.6965773 53.6126094,45.1098717 54.0001719,44.7482974 C54.3877344,44.386723 55.0166094,44.386723 55.4041719,44.7482974 C55.7917344,45.1098717 55.7917344,45.6965773 55.4041719,46.0581516" id="Fill-559" fill="#FBE158"></path>
                        <path d="M36.52805,46.0581516 C36.1404875,46.4197259 35.5116125,46.4197259 35.12405,46.0581516 C34.7364875,45.6965773 34.7364875,45.1098717 35.12405,44.7482974 C35.5116125,44.386723 36.1404875,44.386723 36.52805,44.7482974 C36.9156125,45.1098717 36.9156125,45.6965773 36.52805,46.0581516" id="Fill-560" fill="#FBE158"></path>
                    </g>
                </g>
            </g>
        </g>
    </g>
</svg>
