<?xml version="1.0" encoding="UTF-8" standalone="no"?>
<svg width="92px" height="92px" viewBox="0 0 92 92" version="1.1" xmlns="http://www.w3.org/2000/svg" xmlns:xlink="http://www.w3.org/1999/xlink" xmlns:sketch="http://www.bohemiancoding.com/sketch/ns">
    <!-- Generator: Sketch 3.4.4 (17249) - http://www.bohemiancoding.com/sketch -->
    <title>Group</title>
    <desc>Created with Sketch.</desc>
    <defs></defs>
    <g id="Page-1" stroke="none" stroke-width="1" fill="none" fill-rule="evenodd" sketch:type="MSPage">
        <g id="LeadershipBonus" sketch:type="MSArtboardGroup" transform="translate(-515.000000, -230.000000)">
            <g id="Group" sketch:type="MSLayerGroup" transform="translate(144.000000, 123.000000)">
                <g id="success-Unit-Copy-2" sketch:type="MSShapeGroup">
                    <g id="Group" transform="translate(372.000000, 108.000000)">
                        <circle id="right-bubble" stroke="#FFFFFF" stroke-width="2" fill="#54D0CD" cx="45" cy="45" r="45"></circle>
                        <path d="M54.4907188,38.1771012 L53.2719688,38.7642541 L51.4438438,32.8927252 L41.0844688,35.8284896 C41.0844688,35.8284896 41.9985313,34.5913585 42.9125938,32.8927252 C38.494625,32.8927252 37.4282188,38.7642541 37.4282188,38.7642541 L36.8188438,38.4706777 L36.8188438,42.8531869 L39.2563438,48.7247158 L42.3672031,51.0703916 C42.7139375,51.4455823 43.2105781,51.6604803 43.7322031,51.6604803 L45.3500938,51.6604803 L46.9679844,51.6604803 C47.4896094,51.6604803 47.98625,51.4455823 48.3329844,51.0703916 L51.4438438,48.7247158 L53.3895781,44.0380614 C55.1238594,43.9259152 55.7094688,41.3952862 55.7094688,39.4817549 C55.7094688,38.8294281 55.1000938,38.1771012 54.4907188,38.1771012" id="Fill-412" fill="#FBC8C8"></path>
                        <path d="M62.4125938,56.3576447 C62.0378281,55.5749699 61.377875,54.9514135 60.5582656,54.6061676 L53.2719688,52.2475744 L45.3500938,52.2475744 L37.4282188,52.2475744 L30.1419219,54.6061676 C29.3223125,54.9514135 28.6623594,55.5749699 28.2875938,56.3576447 L25.8500938,62.8163265 L64.8500938,62.8163265 L62.4125938,56.3576447 Z" id="Fill-413" fill="#FFFFFF"></path>
                        <path d="M26.5067562,61.0760641 L64.1935531,61.0760641 L63.5281156,59.3146054 L27.1715844,59.3146054 L26.5067562,61.0760641 Z" id="Fill-414" fill="#F89392"></path>
                        <path d="M28.2875937,56.3576447 L28.0578594,56.9659351 L62.6423281,56.9659351 L62.4125937,56.3576447 C62.1987031,55.9114085 61.8842656,55.525649 61.5082812,55.2044764 L29.1919062,55.2044764 C28.8159219,55.525649 28.5014844,55.9114085 28.2875937,56.3576447" id="Fill-415" fill="#F89392"></path>
                        <path d="M45.3500938,58.1615545 C47.7004531,58.1615545 53.2719688,57.5744016 53.2719688,54.0514843 L53.2719688,52.2477506 L51.4438438,52.2477506 L51.4438438,54.0514843 C51.4438438,54.0514843 50.2250938,56.4000959 45.3500938,56.4000959 C40.4750938,56.4000959 39.2563438,54.0514843 39.2563438,54.0514843 L39.2563438,52.2477506 L37.4282188,52.2477506 L37.4282188,54.0514843 C37.4282188,57.5744016 42.9997344,58.1615545 45.3500938,58.1615545" id="Fill-416" fill="#21B2D1"></path>
                        <path d="M46.9678625,51.6604215 L45.3499719,51.6604215 L43.7320812,51.6604215 C43.2104562,51.6604215 42.7138156,51.4455236 42.3676906,51.0703329 L39.2562219,48.7246571 L39.2562219,54.0301706 C39.2562219,54.0301706 40.4749719,56.3787822 45.3499719,56.3787822 C50.2249719,56.3787822 51.4437219,54.0301706 51.4437219,54.0301706 L51.4437219,48.7246571 L48.3328625,51.0703329 C47.9861281,51.4455236 47.4894875,51.6604215 46.9678625,51.6604215" id="Fill-417" fill="#F8B4B4"></path>
                        <path d="M42.3675078,51.0703916 L39.2566484,48.7247158 L39.2566484,54.0302293 C39.2566484,54.0302293 40.4753984,56.3788409 45.3503984,56.3788409 L45.3503984,51.6604803 L43.7325078,51.6604803 C43.2108828,51.6604803 42.7142422,51.4461695 42.3675078,51.0703916" id="Fill-418" fill="#FBC8C8"></path>
                        <path d="M42.9125938,32.8927252 C38.494625,32.8927252 37.4282188,38.7642541 37.4282188,38.7642541 L36.2094688,38.1771012 C35.6000938,38.1771012 34.9907188,38.8294281 34.9907188,39.4817549 C34.9907188,41.3952862 35.5763281,43.9259152 37.3106094,44.0380614 L39.2563438,48.7247158 L42.3672031,51.0703916 C42.7139375,51.4461695 43.2105781,51.6604803 43.7322031,51.6604803 L45.3500938,51.6604803 L45.3500938,34.6195418 L41.0844688,35.8284896 C41.0844688,35.8284896 41.9985313,34.5913585 42.9125938,32.8927252" id="Fill-419" fill="#FBD7D7"></path>
                        <path d="M43.5219688,39.351407 C43.5219688,38.7031902 42.9759688,38.1771012 42.3032188,38.1771012 L42.2995625,38.1771012 C42.3001719,38.1894314 42.3032188,38.2017616 42.3032188,38.2140918 C42.3032188,38.8611343 41.7596563,39.386049 41.088125,39.3878105 C41.1088438,40.0189998 41.6426563,40.5257128 42.3032188,40.5257128 C42.9759688,40.5257128 43.5219688,39.9996238 43.5219688,39.351407" id="Fill-420" fill="#3E3E3F"></path>
                        <path d="M49.6118797,39.351407 C49.6118797,38.7031902 49.0658797,38.1771012 48.3931297,38.1771012 L48.3894734,38.1771012 C48.3900828,38.1894314 48.3931297,38.2017616 48.3931297,38.2140918 C48.3931297,38.8611343 47.8495672,39.386049 47.1780359,39.3878105 C47.1981453,40.0189998 47.7331766,40.5257128 48.3931297,40.5257128 C49.0658797,40.5257128 49.6118797,39.9996238 49.6118797,39.351407" id="Fill-421" fill="#3E3E3F"></path>
                        <path d="M42.3032188,45.8100888 L48.3969688,45.8100888 C48.3969688,45.8100888 48.3969688,47.5715475 45.3500938,47.5715475 C42.3032188,47.5715475 42.3032188,45.8100888 42.3032188,45.8100888" id="Fill-422" fill="#F89392"></path>
                        <path d="M45.3500938,27.2518886 C40.3020313,27.2518886 36.2094688,31.0214102 36.2094688,36.059182 L36.2094688,38.1770425 L37.4282188,38.7641954 C37.4282188,38.7641954 38.494625,32.8926664 42.9125938,32.8926664 C41.9985313,34.5912998 41.0844688,35.8284309 41.0844688,35.8284309 L51.4438438,32.8926664 L53.2719688,38.7641954 L54.4907188,38.1770425 L54.4907188,36.059182 C54.4907188,31.0214102 50.3981563,27.2518886 45.3500938,27.2518886" id="Fill-423" fill="#84462D"></path>
                        <path d="M36.2094688,36.0590059 L36.2094688,38.1774535 L37.4282188,38.7646064 C37.4282188,38.7646064 38.494625,32.8930775 42.9125938,32.8930775 C41.9985313,34.5911236 41.0844688,35.8288419 41.0844688,35.8288419 L45.3500938,34.619307 L45.3500938,27.2517124 C40.3020313,27.2517124 36.2094688,31.021234 36.2094688,36.0590059" id="Fill-424" fill="#9C6144"></path>
                    </g>
                </g>
            </g>
        </g>
    </g>
</svg>
