<?xml version="1.0" encoding="UTF-8" standalone="no"?>
<svg width="92px" height="92px" viewBox="0 0 92 92" version="1.1" xmlns="http://www.w3.org/2000/svg" xmlns:xlink="http://www.w3.org/1999/xlink" xmlns:sketch="http://www.bohemiancoding.com/sketch/ns">
    <!-- Generator: Sketch 3.4.4 (17249) - http://www.bohemiancoding.com/sketch -->
    <title>person2</title>
    <desc>Created with Sketch.</desc>
    <defs></defs>
    <g id="Page-1" stroke="none" stroke-width="1" fill="none" fill-rule="evenodd" sketch:type="MSPage">
        <g id="SuccessUnit" sketch:type="MSArtboardGroup" transform="translate(-325.000000, -144.000000)">
            <g id="step1" sketch:type="MSLayerGroup" transform="translate(144.000000, 145.000000)">
                <g id="successUnit" sketch:type="MSShapeGroup">
                    <g id="person2" transform="translate(182.000000, 0.000000)">
                        <circle id="Oval-27-Copy" stroke="#7BF399" stroke-width="2" fill="#54D0CD" cx="45" cy="45" r="45"></circle>
                        <g id="Group" transform="translate(26.000000, 27.000000)">
                            <path d="M38.8500937,35.8163265 L36.6618281,30.5081195 C36.1200937,29.1948542 34.9574062,28.188586 33.5125781,27.7843732 L25.4438437,25.9895773 L25.4438437,21.2811516 C23.7126094,23.7803353 21.3512812,24.9605685 19.3500937,25.5830904 C17.3507344,24.961137 14.9881875,23.7882945 13.2563437,21.2942274 L13.2563437,27.2886297 C13.2563437,27.2886297 14.4750937,29.5626822 19.3500937,29.5626822 L19.3500937,35.8163265 L38.8500937,35.8163265 Z" id="Fill-370" fill="#F8B4B4"></path>
                            <path d="M25.4438437,25.9897478 L28.4907187,26.6674155 L28.4907187,16.9304913 C28.1439844,17.2573863 27.7095,17.4933192 27.1635,17.5814388 C26.7369375,19.0658265 26.1403594,20.2801706 25.4438437,21.2841647 L25.4438437,25.9897478 Z" id="Fill-371" fill="#3E3E3F"></path>
                            <path d="M13.2563437,21.294 L13.2563437,25.9899184 L5.18760937,27.7847143 C3.74278125,28.1889271 2.58009375,29.1946268 2.03835937,30.5084606 L-0.14990625,35.8160991 L19.3500937,35.8160991 L19.3500937,25.582863 C17.3507344,24.9614781 14.9881875,23.7880671 13.2563437,21.294" id="Fill-372" fill="#FBC8C8"></path>
                            <path d="M28.5058922,11.9407085 C28.5058922,11.9429825 28.5052828,11.9463936 28.5052828,11.9492362 C27.5723297,12.1840321 23.1653297,11.1169329 23.0135953,2.71089796 C22.0111734,2.42891545 20.8046109,2.27427988 19.3500328,2.27427988 C11.4427828,2.27427988 10.8297516,6.80532945 10.8187828,11.9270641 C10.8187828,21.476379 15.6937828,24.4462915 19.3500328,25.5833178 C22.1555953,24.7106501 25.6753453,22.7555335 27.1634391,17.5814956 C29.1829078,17.2557376 29.7094078,14.9595131 29.7094078,13.2022391 C29.7094078,12.5757376 29.1103922,11.9509417 28.5058922,11.9407085" id="Fill-373" fill="#FBC8C8"></path>
                            <path d="M36.6616453,30.5081764 C36.3045516,29.6428994 35.6750672,28.9163397 34.8761766,28.4018353 C33.3783328,31.0084679 26.7245672,32.9738178 18.7405359,32.9738178 C11.3939109,32.9738178 5.17402031,31.3097799 3.06009844,29.0129869 C2.62500469,29.4405087 2.27156719,29.9430743 2.03878594,30.5081764 L-0.150089062,35.8163834 L19.3499109,35.8163834 L38.8499109,35.8163834 L36.6616453,30.5081764 Z" id="Fill-374" fill="#FA5655"></path>
                            <path d="M19.3500937,2.27405248 C11.4428437,2.27405248 10.8298125,6.80567055 10.8188437,11.9268367 C10.8188437,21.4767201 15.6938437,24.4460641 19.3500937,25.5830904 L19.3500937,2.27405248 Z" id="Fill-375" fill="#FBD7D7"></path>
                            <path d="M17.5219687,13.0758017 C17.5219687,12.4481633 16.9765781,11.9387755 16.3032187,11.9387755 L16.2995625,11.9387755 C16.3001719,11.9507143 16.3032187,11.9626531 16.3032187,11.9745918 C16.3032187,12.6010933 15.7596562,13.109344 15.088125,13.1110496 C15.1088437,13.7222012 15.6432656,14.212828 16.3032187,14.212828 C16.9765781,14.212828 17.5219687,13.7034402 17.5219687,13.0758017" id="Fill-376" fill="#3E3E3F"></path>
                            <path d="M23.6118797,13.0758017 C23.6118797,12.4481633 23.0658797,11.9387755 22.3931297,11.9387755 L22.3894734,11.9387755 C22.3900828,11.9507143 22.3931297,11.9626531 22.3931297,11.9745918 C22.3931297,12.6010933 21.8495672,13.109344 21.1780359,13.1110496 C21.1987547,13.7222012 21.7331766,14.212828 22.3931297,14.212828 C23.0658797,14.212828 23.6118797,13.7034402 23.6118797,13.0758017" id="Fill-377" fill="#3E3E3F"></path>
                            <path d="M16.3032187,19.3294461 L22.3969687,19.3294461 C22.3969687,19.3294461 22.3969687,21.0349854 19.3500937,21.0349854 C16.3032187,21.0349854 16.3032187,19.3294461 16.3032187,19.3294461" id="Fill-378" fill="#F89392"></path>
                            <path d="M8.38134375,8.52769679 L8.38134375,34.6793003 C8.38134375,34.6793003 15.0844687,31.2682216 15.0844687,20.8684111 L15.0844687,11.9387755 C15.0844687,2.84938776 23.6157187,7.39067055 23.0063437,2.27405248 C23.0063437,-2.27405248 8.38134375,-1.21430643e-16 8.38134375,8.52769679" id="Fill-379" fill="#3E3E3F"></path>
                            <path d="M23.0064047,2.31146064 C23.0216391,11.0887347 27.5578266,12.1876706 28.5054047,11.9494636 C28.5054047,10.1000904 29.8003266,2.29838484 23.0466234,2.27393878 C23.0252953,2.27393878 23.0064047,2.29156268 23.0064047,2.31146064" id="Fill-380" fill="#3E3E3F"></path>
                            <path d="M28.0927969,18.1924198 L29.0233125,20.2885277 C29.1793125,20.6393003 29.0933906,21.0435131 28.8051562,21.3124198 C28.4115,21.6796793 27.7740937,21.6796793 27.3804375,21.3124198 C27.0928125,21.0435131 27.0062812,20.6393003 27.1622812,20.2885277 L28.0927969,18.1924198 Z" id="Fill-381" fill="#FFFFFF"></path>
                        </g>
                    </g>
                </g>
            </g>
        </g>
    </g>
</svg>
