<?xml version="1.0" encoding="UTF-8" standalone="no"?>
<svg width="92px" height="92px" viewBox="0 0 92 92" version="1.1" xmlns="http://www.w3.org/2000/svg" xmlns:xlink="http://www.w3.org/1999/xlink" xmlns:sketch="http://www.bohemiancoding.com/sketch/ns">
    <!-- Generator: Sketch 3.4.4 (17249) - http://www.bohemiancoding.com/sketch -->
    <title>person3</title>
    <desc>Created with Sketch.</desc>
    <defs></defs>
    <g id="Page-1" stroke="none" stroke-width="1" fill="none" fill-rule="evenodd" sketch:type="MSPage">
        <g id="SuccessUnit" sketch:type="MSArtboardGroup" transform="translate(-515.000000, -252.000000)">
            <g id="step1" sketch:type="MSLayerGroup" transform="translate(144.000000, 145.000000)">
                <g id="successUnit" sketch:type="MSShapeGroup">
                    <g id="person3" transform="translate(372.000000, 108.000000)">
                        <circle id="Oval-27-Copy-2" stroke="#7BF399" stroke-width="2" fill="#54D0CD" cx="45" cy="45" r="45"></circle>
                        <g id="Group" transform="translate(25.000000, 27.000000)">
                            <path d="M29.436825,9.93103448 C28.824325,9.93103448 28.824325,10.6206207 28.824325,10.6206207 L28.824325,10.5517241 L28.211825,11.1724138 C28.211825,-1.11022302e-14 25.761825,3.72413793 20.249325,3.72413793 C14.736825,3.72413793 12.286825,-1.11022302e-14 12.286825,11.1724138 L11.674325,10.5517241 L11.674325,14.8946897 L14.124325,21.1015862 L17.2511375,23.5818621 C17.59965,23.9784828 18.0988375,24.2050345 18.6231375,24.2050345 L20.249325,24.2050345 L21.8755125,24.2050345 C22.3998125,24.2050345 22.899,23.9784828 23.2475125,23.5818621 L26.374325,21.1015862 L28.338,16.1261379 C30.07505,15.9988966 30.661825,13.329931 30.661825,11.3102069 C30.661825,10.6206207 30.049325,9.93103448 29.436825,9.93103448" id="Fill-1352" fill="#BF8662"></path>
                            <path d="M12.286825,11.1724138 L11.674325,10.5517241 L11.674325,10.6206207 C11.674325,10.6206207 11.674325,9.93103448 11.061825,9.93103448 C10.449325,9.93103448 9.836825,10.6206207 9.836825,11.3102069 C9.836825,13.329931 10.4236,15.9988966 12.1600375,16.1261379 L14.124325,21.1015862 L17.2511375,23.5818621 C17.59965,23.9784828 18.0988375,24.2050345 18.6231375,24.2050345 L20.249325,24.2050345 L20.249325,3.72413793 C14.736825,3.72413793 12.286825,-2.13162821e-14 12.286825,11.1724138" id="Fill-1353" fill="#CC9978"></path>
                            <path d="M20.249325,0 C12.899325,0 11.061825,4.34482759 11.674325,10.5517241 L12.286825,11.1724138 C12.286825,0 14.736825,3.72413793 20.249325,3.72413793 C25.761825,3.72413793 28.211825,0 28.211825,11.1724138 L28.824325,10.5517241 C29.436825,4.34482759 27.599325,0 20.249325,0" id="Fill-1354" fill="#692E19"></path>
                            <path d="M11.674325,10.5517241 L12.286825,11.1724138 C12.286825,0 14.736825,3.72413793 20.249325,3.72413793 L20.249325,0 C12.899325,0 11.061825,4.34482759 11.674325,10.5517241" id="Fill-1355" fill="#84462D"></path>
                            <path d="M37.399325,29.1500069 C37.0226375,28.3226276 36.3593,27.6634552 35.5354875,27.2984897 L28.211825,24.8051793 L20.249325,24.8051793 L12.286825,24.8051793 L4.9631625,27.2984897 C4.13935,27.6634552 3.4760125,28.3226276 3.099325,29.1500069 L0.649325,35.9775931 L39.849325,35.9775931 L37.399325,29.1500069 Z" id="Fill-1356" fill="#FFFFFF"></path>
                            <path d="M30.661825,34.1602759 L33.724325,34.1602759 L33.724325,32.2982069 L30.661825,32.2982069 L30.661825,34.1602759 Z" id="Fill-1357" fill="#FBE158"></path>
                            <path d="M25.761825,34.1602759 L28.824325,34.1602759 L28.824325,32.2982069 L25.761825,32.2982069 L25.761825,34.1602759 Z" id="Fill-1358" fill="#FBE158"></path>
                            <path d="M4.324325,32.298269 L1.9778375,32.298269 L1.5319375,33.5396483 L1.3096,34.1603379 L4.324325,34.1603379 L4.324325,32.298269 Z" id="Fill-1359" fill="#FBE158"></path>
                            <path d="M20.861825,34.1602759 L23.924325,34.1602759 L23.924325,32.2982069 L20.861825,32.2982069 L20.861825,34.1602759 Z" id="Fill-1360" fill="#FBE158"></path>
                            <path d="M6.161825,34.1602759 L9.224325,34.1602759 L9.224325,32.2982069 L6.161825,32.2982069 L6.161825,34.1602759 Z" id="Fill-1361" fill="#FBE158"></path>
                            <path d="M11.061825,34.1602759 L14.124325,34.1602759 L14.124325,32.2982069 L11.061825,32.2982069 L11.061825,34.1602759 Z" id="Fill-1362" fill="#FBE158"></path>
                            <path d="M15.961825,34.1602759 L19.024325,34.1602759 L19.024325,32.2982069 L15.961825,32.2982069 L15.961825,34.1602759 Z" id="Fill-1363" fill="#FBE158"></path>
                            <path d="M35.561825,32.298269 L35.561825,34.1603379 L39.18905,34.1603379 L38.9667125,33.5396483 L38.5208125,32.298269 L35.561825,32.298269 Z" id="Fill-1364" fill="#FBE158"></path>
                            <path d="M23.924325,27.9533793 L20.861825,27.9533793 L20.861825,29.8154483 L23.924325,29.8154483 L23.924325,27.9533793 Z" id="Fill-1365" fill="#FBE158"></path>
                            <path d="M33.724325,27.9533793 L30.661825,27.9533793 L30.661825,29.8154483 L33.724325,29.8154483 L33.724325,27.9533793 Z" id="Fill-1366" fill="#FBE158"></path>
                            <path d="M4.324325,27.9534414 L4.008275,27.9534414 C3.6107625,28.3103379 3.2934875,28.7460621 3.099325,29.1724759 L2.8684125,29.8155103 L4.324325,29.8155103 L4.324325,27.9534414 Z" id="Fill-1367" fill="#FBE158"></path>
                            <path d="M9.224325,27.9533793 L6.161825,27.9533793 L6.161825,29.8154483 L9.224325,29.8154483 L9.224325,27.9533793 Z" id="Fill-1368" fill="#FBE158"></path>
                            <path d="M35.561825,27.9534414 L35.561825,29.8155103 L37.6302375,29.8155103 L37.399325,29.1724759 C37.2051625,28.7460621 36.8878875,28.3103379 36.490375,27.9534414 L35.561825,27.9534414 Z" id="Fill-1369" fill="#FBE158"></path>
                            <path d="M28.824325,27.9533793 L25.761825,27.9533793 L25.761825,29.8154483 L28.824325,29.8154483 L28.824325,27.9533793 Z" id="Fill-1370" fill="#FBE158"></path>
                            <path d="M19.024325,27.9533793 L15.961825,27.9533793 L15.961825,29.8154483 L19.024325,29.8154483 L19.024325,27.9533793 Z" id="Fill-1371" fill="#FBE158"></path>
                            <path d="M14.124325,27.9533793 L11.061825,27.9533793 L11.061825,29.8154483 L14.124325,29.8154483 L14.124325,27.9533793 Z" id="Fill-1372" fill="#FBE158"></path>
                            <path d="M4.324325,36 L6.161825,36 L6.161825,34.1602759 L4.324325,34.1602759 L4.324325,36 Z" id="Fill-1373" fill="#FACB1B"></path>
                            <path d="M6.161825,27.9534414 L6.161825,26.9125448 L4.9631625,27.3209586 C4.735925,27.4215103 4.5246125,27.5493724 4.324325,27.692131 L4.324325,27.9534414 L6.161825,27.9534414 Z" id="Fill-1374" fill="#FACB1B"></path>
                            <path d="M6.161825,29.8154483 L4.324325,29.8154483 L4.324325,32.2982069 L6.161825,32.2982069 L6.161825,29.8154483 Z" id="Fill-1375" fill="#FACB1B"></path>
                            <path d="M9.224325,32.2982069 L11.061825,32.2982069 L11.061825,29.8154483 L9.224325,29.8154483 L9.224325,32.2982069 Z" id="Fill-1376" fill="#FACB1B"></path>
                            <path d="M9.224325,36 L11.061825,36 L11.061825,34.1602759 L9.224325,34.1602759 L9.224325,36 Z" id="Fill-1377" fill="#FACB1B"></path>
                            <path d="M11.061825,27.9534414 L11.061825,25.2447517 L9.224325,25.8704069 L9.224325,27.9534414 L11.061825,27.9534414 Z" id="Fill-1378" fill="#FACB1B"></path>
                            <path d="M14.124325,36 L15.961825,36 L15.961825,34.1602759 L14.124325,34.1602759 L14.124325,36 Z" id="Fill-1379" fill="#FACB1B"></path>
                            <path d="M15.961825,24.8275862 L14.124325,24.8275862 L14.124325,27.9533793 L15.961825,27.9533793 L15.961825,24.8275862 Z" id="Fill-1380" fill="#FACB1B"></path>
                            <path d="M14.124325,32.2982069 L15.961825,32.2982069 L15.961825,29.8154483 L14.124325,29.8154483 L14.124325,32.2982069 Z" id="Fill-1381" fill="#FACB1B"></path>
                            <path d="M19.024325,36 L20.861825,36 L20.861825,34.1602759 L19.024325,34.1602759 L19.024325,36 Z" id="Fill-1382" fill="#FACB1B"></path>
                            <path d="M19.024325,32.2982069 L20.861825,32.2982069 L20.861825,29.8154483 L19.024325,29.8154483 L19.024325,32.2982069 Z" id="Fill-1383" fill="#FACB1B"></path>
                            <path d="M20.861825,27.9534414 L20.861825,24.8276483 L20.249325,24.8276483 L19.024325,24.8276483 L19.024325,27.9534414 L20.861825,27.9534414 Z" id="Fill-1384" fill="#FACB1B"></path>
                            <path d="M23.924325,32.2982069 L25.761825,32.2982069 L25.761825,29.8154483 L23.924325,29.8154483 L23.924325,32.2982069 Z" id="Fill-1385" fill="#FACB1B"></path>
                            <path d="M25.761825,24.8275862 L23.924325,24.8275862 L23.924325,27.9533793 L25.761825,27.9533793 L25.761825,24.8275862 Z" id="Fill-1386" fill="#FACB1B"></path>
                            <path d="M23.924325,36 L25.761825,36 L25.761825,34.1602759 L23.924325,34.1602759 L23.924325,36 Z" id="Fill-1387" fill="#FACB1B"></path>
                            <path d="M30.661825,27.9534414 L30.661825,25.6618552 L28.824325,25.0362 L28.824325,27.9534414 L30.661825,27.9534414 Z" id="Fill-1388" fill="#FACB1B"></path>
                            <path d="M28.824325,32.2982069 L30.661825,32.2982069 L30.661825,29.8154483 L28.824325,29.8154483 L28.824325,32.2982069 Z" id="Fill-1389" fill="#FACB1B"></path>
                            <path d="M28.824325,36 L30.661825,36 L30.661825,34.1602759 L28.824325,34.1602759 L28.824325,36 Z" id="Fill-1390" fill="#FACB1B"></path>
                            <path d="M35.561825,34.1602759 L33.724325,34.1602759 L33.724325,36 L35.561825,36 L35.561825,34.1602759 Z" id="Fill-1391" fill="#FACB1B"></path>
                            <path d="M33.724325,32.2982069 L35.561825,32.2982069 L35.561825,29.8154483 L33.724325,29.8154483 L33.724325,32.2982069 Z" id="Fill-1392" fill="#FACB1B"></path>
                            <path d="M35.561825,27.9534414 L35.561825,27.3358552 C35.5526375,27.3315103 35.544675,27.3246828 35.5354875,27.3209586 L33.724325,26.7039931 L33.724325,27.9534414 L35.561825,27.9534414 Z" id="Fill-1393" fill="#FACB1B"></path>
                            <path d="M4.324325,34.1602759 L6.161825,34.1602759 L6.161825,32.2982069 L4.324325,32.2982069 L4.324325,34.1602759 Z" id="Fill-1394" fill="#F99134"></path>
                            <path d="M6.161825,27.9533793 L4.324325,27.9533793 L4.324325,29.8154483 L6.161825,29.8154483 L6.161825,27.9533793 Z" id="Fill-1395" fill="#F99134"></path>
                            <path d="M9.224325,34.1602759 L11.061825,34.1602759 L11.061825,32.2982069 L9.224325,32.2982069 L9.224325,34.1602759 Z" id="Fill-1396" fill="#F99134"></path>
                            <path d="M11.061825,27.9533793 L9.224325,27.9533793 L9.224325,29.8154483 L11.061825,29.8154483 L11.061825,27.9533793 Z" id="Fill-1397" fill="#F99134"></path>
                            <path d="M14.124325,34.1602759 L15.961825,34.1602759 L15.961825,32.2982069 L14.124325,32.2982069 L14.124325,34.1602759 Z" id="Fill-1398" fill="#F99134"></path>
                            <path d="M15.961825,27.9533793 L14.124325,27.9533793 L14.124325,29.8154483 L15.961825,29.8154483 L15.961825,27.9533793 Z" id="Fill-1399" fill="#F99134"></path>
                            <path d="M19.024325,34.1602759 L20.861825,34.1602759 L20.861825,32.2982069 L19.024325,32.2982069 L19.024325,34.1602759 Z" id="Fill-1400" fill="#F99134"></path>
                            <path d="M20.861825,27.9533793 L19.024325,27.9533793 L19.024325,29.8154483 L20.861825,29.8154483 L20.861825,27.9533793 Z" id="Fill-1401" fill="#F99134"></path>
                            <path d="M23.924325,34.1602759 L25.761825,34.1602759 L25.761825,32.2982069 L23.924325,32.2982069 L23.924325,34.1602759 Z" id="Fill-1402" fill="#F99134"></path>
                            <path d="M25.761825,27.9533793 L23.924325,27.9533793 L23.924325,29.8154483 L25.761825,29.8154483 L25.761825,27.9533793 Z" id="Fill-1403" fill="#F99134"></path>
                            <path d="M28.824325,34.1602759 L30.661825,34.1602759 L30.661825,32.2982069 L28.824325,32.2982069 L28.824325,34.1602759 Z" id="Fill-1404" fill="#F99134"></path>
                            <path d="M30.661825,27.9533793 L28.824325,27.9533793 L28.824325,29.8154483 L30.661825,29.8154483 L30.661825,27.9533793 Z" id="Fill-1405" fill="#F99134"></path>
                            <path d="M33.724325,34.1602759 L35.561825,34.1602759 L35.561825,32.2982069 L33.724325,32.2982069 L33.724325,34.1602759 Z" id="Fill-1406" fill="#F99134"></path>
                            <path d="M35.561825,27.9533793 L33.724325,27.9533793 L33.724325,29.8154483 L35.561825,29.8154483 L35.561825,27.9533793 Z" id="Fill-1407" fill="#F99134"></path>
                            <path d="M21.87539,24.2050966 L20.2492025,24.2050966 L18.623015,24.2050966 C18.098715,24.2050966 17.5995275,23.9785448 17.2516275,23.5819241 L14.1242025,21.1016483 L14.1242025,26.6897172 C14.1242025,26.6897172 15.3492025,29.1724759 20.2492025,29.1724759 C25.1492025,29.1724759 26.3742025,26.6897172 26.3742025,26.6897172 L26.3742025,21.1016483 L23.24739,23.5819241 C22.8988775,23.9785448 22.39969,24.2050966 21.87539,24.2050966" id="Fill-1408" fill="#AF7653"></path>
                            <path d="M1.309355,34.1603379 L1.309355,34.1603379 L1.532305,33.5396483 L1.309355,34.1603379 Z" id="Fill-1409" fill="#40C9E7"></path>
                            <path d="M2.8684125,29.8155103 L2.8684125,29.8155103 L3.099325,29.1724759 L2.8684125,29.8155103 Z" id="Fill-1410" fill="#40C9E7"></path>
                            <path d="M20.249325,31.0344828 C22.6117375,31.0344828 28.211825,30.4137931 28.211825,26.6896552 L28.211825,24.7828966 L26.374325,24.7828966 L26.374325,26.6896552 C26.374325,26.6896552 25.149325,29.1724138 20.249325,29.1724138 C15.349325,29.1724138 14.124325,26.6896552 14.124325,26.6896552 L14.124325,24.7828966 L12.286825,24.7828966 L12.286825,26.6896552 C12.286825,30.4137931 17.8869125,31.0344828 20.249325,31.0344828" id="Fill-1411" fill="#FFFFFF"></path>
                            <path d="M17.2514437,23.5816759 L14.1246312,21.1014 L14.1246312,26.689469 C14.1246312,26.689469 15.3496312,29.1722276 20.2496312,29.1722276 L20.2496312,24.2048483 L18.6234437,24.2048483 C18.0991437,24.2048483 17.5999562,23.9782966 17.2514437,23.5816759" id="Fill-1412" fill="#BF8662"></path>
                            <path d="M18.411825,11.1705517 C18.411825,10.4853103 17.863025,9.92917241 17.186825,9.92917241 C17.1856,9.92917241 17.184375,9.9297931 17.18315,9.9297931 C17.2143875,10.6113103 16.6662,11.2071724 15.9655,11.2090345 C15.986325,11.8762759 16.522875,12.411931 17.186825,12.411931 C17.863025,12.411931 18.411825,11.8564138 18.411825,11.1705517" id="Fill-1413" fill="#3E3E3F"></path>
                            <path d="M24.5329662,11.1705517 C24.5329662,10.4853103 23.9841663,9.92917241 23.3079662,9.92917241 C23.3067413,9.92917241 23.3055162,9.9297931 23.3042912,9.9297931 C23.3355287,10.6113103 22.7873412,11.2071724 22.0866412,11.2090345 C22.1068537,11.8762759 22.6446287,12.411931 23.3079662,12.411931 C23.9841663,12.411931 24.5329662,11.8564138 24.5329662,11.1705517" id="Fill-1414" fill="#3E3E3F"></path>
                            <path d="M21.474325,20.4827586 L20.861825,19.862069 L20.249325,19.862069 L19.636825,19.862069 L19.024325,20.4827586 L17.799325,20.4827586 L17.0747375,19.2593793 C16.8481125,18.8757931 16.8419875,18.3984828 17.059425,18.0093103 C17.2768625,17.6201379 17.684175,17.3793103 18.125175,17.3793103 L20.249325,17.3793103 L22.373475,17.3793103 C22.814475,17.3793103 23.2217875,17.6201379 23.439225,18.0093103 C23.6566625,18.3984828 23.6505375,18.8757931 23.4239125,19.2593793 L22.699325,20.4827586 L21.474325,20.4827586 Z M20.249325,15.5172414 C20.249325,15.5172414 16.574325,15.5172414 14.736825,16.7586207 C14.736825,21.1034483 17.799325,24.2068966 17.799325,24.2068966 L20.249325,25.4482759 L22.699325,24.2068966 C22.699325,24.2068966 25.761825,21.1034483 25.761825,16.7586207 C23.924325,15.5172414 20.249325,15.5172414 20.249325,15.5172414 L20.249325,15.5172414 Z" id="Fill-1415" fill="#692E19"></path>
                            <path d="M19.636825,19.862069 L19.024325,20.4827586 L17.799325,20.4827586 L17.0747375,19.2593793 C16.8481125,18.8757931 16.8419875,18.3984828 17.059425,18.0093103 C17.2768625,17.6201379 17.684175,17.3793103 18.125175,17.3793103 L20.249325,17.3793103 L20.249325,15.5172414 C20.249325,15.5172414 16.574325,15.5172414 14.736825,16.7586207 C14.736825,21.1034483 17.799325,24.2068966 17.799325,24.2068966 L20.249325,25.4482759 L20.249325,19.862069 L19.636825,19.862069 Z" id="Fill-1416" fill="#84462D"></path>
                        </g>
                    </g>
                </g>
            </g>
        </g>
    </g>
</svg>
