<?xml version="1.0" encoding="UTF-8" standalone="no"?>
<svg width="92px" height="92px" viewBox="0 0 92 92" version="1.1" xmlns="http://www.w3.org/2000/svg" xmlns:xlink="http://www.w3.org/1999/xlink" xmlns:sketch="http://www.bohemiancoding.com/sketch/ns">
    <!-- Generator: Sketch 3.4.4 (17249) - http://www.bohemiancoding.com/sketch -->
    <title>person1</title>
    <desc>Created with Sketch.</desc>
    <defs></defs>
    <g id="Page-1" stroke="none" stroke-width="1" fill="none" fill-rule="evenodd" sketch:type="MSPage">
        <g id="SuccessUnit" sketch:type="MSArtboardGroup" transform="translate(-143.000000, -247.000000)">
            <g id="step1" sketch:type="MSLayerGroup" transform="translate(144.000000, 145.000000)">
                <g id="successUnit" sketch:type="MSShapeGroup">
                    <g id="person1" transform="translate(0.000000, 103.000000)">
                        <circle id="Oval-27" stroke="#7BF399" stroke-width="2" fill="#54D0CD" cx="45" cy="45" r="45"></circle>
                        <g id="Group" transform="translate(25.000000, 27.000000)">
                            <path d="M39.849325,36.0017115 L37.399325,29.5099082 C37.0226375,28.7232197 36.3593,28.0970557 35.5354875,27.7494492 L27.599325,24.7885967 L20.249325,36.0017115 L39.849325,36.0017115 Z" id="Fill-1689" fill="#3E3E3F"></path>
                            <path d="M20.249325,28.9215148 L20.244425,28.9179738 L20.249325,28.9179738 L20.254225,28.9179738 L20.249325,28.9215148 Z M26.374325,21.8147607 L23.2475125,24.1724656 C22.899,24.5495803 22.3998125,24.7655803 21.8755125,24.7655803 L20.249325,24.7655803 L18.6231375,24.7655803 C18.0988375,24.7655803 17.59965,24.5495803 17.2511375,24.1724656 L14.124325,21.8147607 L14.124325,24.1984328 L12.899325,24.7885967 L20.249325,36.003482 L27.599325,24.7885967 L26.374325,24.1984328 L26.374325,21.8147607 Z" id="Fill-1690" fill="#F8B4B4"></path>
                            <path d="M0.649325,36.0017115 L3.099325,29.5099082 C3.4760125,28.7232197 4.13935,28.0970557 4.9631625,27.7494492 L12.899325,24.7885967 L20.249325,36.0017115 L0.649325,36.0017115 Z" id="Fill-1691" fill="#3E3E3F"></path>
                            <path d="M17.2514437,24.1725246 L14.1246312,21.8148197 L14.1246312,24.1984918 L12.8996312,24.7886557 L20.2496312,36.003541 L20.2496312,28.9215738 L20.2447312,28.9180328 L20.2496312,28.9180328 L20.2496312,24.7656393 L18.6234437,24.7656393 C18.0991437,24.7656393 17.5999562,24.5502295 17.2514437,24.1725246" id="Fill-1692" fill="#FBC8C8"></path>
                            <path d="M29.9981812,11.3955344 C29.8818062,12.4371738 29.4959312,14.1639934 28.2115187,14.1639934 L28.2115187,9.44268197 C28.2115187,9.44268197 27.5990187,11.8033377 25.1490187,11.8033377 L25.1490187,5.31153443 C25.1490187,5.31153443 23.9240187,11.8033377 19.0240187,11.8033377 L19.0240187,7.67219016 C19.0240187,7.67219016 17.1865187,11.8033377 14.7365187,11.8033377 L14.7365187,8.2623541 L12.2865187,11.2131738 L12.2865187,14.1639934 C12.2865187,14.1639934 12.0115062,13.9851738 11.6740187,13.6322557 L11.6740187,15.9132393 L14.1240187,21.8148787 L17.2514437,24.1725836 C17.5999562,24.5496984 18.0991437,24.7656984 18.6234437,24.7656984 L20.2490187,24.7656984 L21.8752062,24.7656984 C22.3995062,24.7656984 22.8986937,24.5496984 23.2478187,24.1725836 L26.3740187,21.8148787 L28.3297312,17.1041902 C30.0735187,16.9908787 30.6615187,14.4478623 30.6615187,12.524518 C30.6615187,12.0771738 30.3742562,11.6345508 29.9981812,11.3955344" id="Fill-1693" fill="#FBC8C8"></path>
                            <path d="M19.024325,7.67213115 C19.024325,7.67213115 17.186825,11.8032787 14.736825,11.8032787 L14.736825,8.26229508 L12.286825,11.2131148 L12.286825,14.1639344 C12.286825,14.1639344 10.8480625,13.2361967 10.5185375,11.3842623 C10.133275,11.6203279 9.836825,12.0700328 9.836825,12.524459 C9.836825,14.4478033 10.4254375,16.9914098 12.1686125,17.1041311 L14.124325,21.8148197 L17.2511375,24.1725246 C17.59965,24.5502295 18.0988375,24.7656393 18.6231375,24.7656393 L20.249325,24.7656393 L20.249325,11.6557377 C19.86835,11.7495738 19.46165,11.8032787 19.024325,11.8032787 L19.024325,7.67213115 Z" id="Fill-1694" fill="#FBD7D7"></path>
                            <path d="M17.186825,18.2933115 L23.311825,18.2933115 C23.311825,18.2933115 23.311825,20.0638033 20.249325,20.0638033 C17.186825,20.0638033 17.186825,18.2933115 17.186825,18.2933115" id="Fill-1695" fill="#F89392"></path>
                            <path d="M30.049325,10.6229508 C30.049325,4.75613115 26.3381875,0 20.249325,0 C14.1604625,0 10.449325,4.75613115 10.449325,10.6229508 C10.449325,12.9836066 12.286825,14.1639344 12.286825,14.1639344 L12.286825,11.2131148 L14.736825,8.26229508 L14.736825,11.8032787 C17.186825,11.8032787 19.024325,7.67213115 19.024325,7.67213115 L19.024325,11.8032787 C23.924325,11.8032787 25.149325,5.31147541 25.149325,5.31147541 L25.149325,11.8032787 C27.599325,11.8032787 28.211825,9.44262295 28.211825,9.44262295 L28.211825,14.1639344 C30.049325,14.1639344 30.049325,10.6229508 30.049325,10.6229508" id="Fill-1696" fill="#84462D"></path>
                            <path d="M10.449325,10.6229508 C10.449325,12.9836066 12.286825,14.1639344 12.286825,14.1639344 L12.286825,11.2131148 L14.736825,8.26229508 L14.736825,11.8032787 C17.186825,11.8032787 19.024325,7.67213115 19.024325,7.67213115 L19.024325,11.8032787 C19.46165,11.8032787 19.86835,11.7495738 20.249325,11.6557377 L20.249325,0 C14.1604625,0 10.449325,4.75613115 10.449325,10.6229508" id="Fill-1697" fill="#9C6144"></path>
                            <path d="M29.4141012,11.4774492 C28.1382637,10.5922033 20.2523262,11.1947607 20.2523262,11.1947607 C20.2523262,11.1947607 12.3149387,10.5922033 11.0391012,11.4774492 C11.0391012,11.4774492 10.9882637,12.6329902 11.0391012,13.247941 C12.2641012,13.8381049 11.4470262,14.8219082 12.2641012,15.0184328 C13.2851387,15.2645311 17.5977512,15.6085967 18.3891012,15.0184328 C19.2233262,14.3958098 19.6141012,12.657777 20.2266012,12.657777 C20.8391012,12.657777 21.2298762,14.3958098 22.0641012,15.0184328 C22.8554512,15.6085967 27.1680637,15.2645311 28.1891012,15.0184328 C29.0061762,14.8219082 28.1891012,13.8381049 29.4141012,13.247941 C29.4649387,12.6329902 29.4141012,11.4774492 29.4141012,11.4774492" id="Fill-1698" fill="#3E3E3F"></path>
                            <path d="M12.8267437,14.2728197 C12.2381312,13.1391148 12.4322937,11.7309836 12.9749687,11.6595738 C13.5170312,11.5887541 17.3139187,11.1844918 18.7931062,11.8738033 C19.3829437,12.1482295 18.6209937,14.5389836 17.7573687,14.6292787 C15.9333437,14.8193115 13.1470812,14.8907213 12.8267437,14.2728197" id="Fill-1699" fill="#FACB1B"></path>
                            <path d="M27.8444475,14.3215082 C28.43306,13.1878033 28.2388975,11.7796721 27.696835,11.7082623 C27.15416,11.6374426 23.3572725,11.2331803 21.878085,11.9224918 C21.2882475,12.196918 22.0501975,14.5876721 22.9138225,14.6779672 C24.7378475,14.868 27.52411,14.9394098 27.8444475,14.3215082" id="Fill-1700" fill="#FACB1B"></path>
                            <path d="M12.9746625,11.6578623 C12.4319875,11.7292721 12.2384375,13.1374033 12.82705,14.2711082 C12.867475,14.3496 12.9489375,14.4162885 13.0616375,14.4735344 L15.782975,11.4772721 C14.484475,11.4878951 13.264375,11.6200918 12.9746625,11.6578623" id="Fill-1701" fill="#FBE158"></path>
                            <path d="M21.858975,11.9099803 C21.3114,12.1655213 21.9294125,14.2428984 22.7121875,14.6105705 L25.509475,11.5299148 C24.213425,11.4821115 22.679725,11.5281443 21.858975,11.9099803" id="Fill-1702" fill="#FBE158"></path>
                        </g>
                    </g>
                </g>
            </g>
        </g>
    </g>
</svg>
