<?xml version="1.0" encoding="UTF-8" standalone="no"?>
<svg width="92px" height="92px" viewBox="0 0 92 92" version="1.1" xmlns="http://www.w3.org/2000/svg" xmlns:xlink="http://www.w3.org/1999/xlink" xmlns:sketch="http://www.bohemiancoding.com/sketch/ns">
    <!-- Generator: Sketch 3.4.4 (17249) - http://www.bohemiancoding.com/sketch -->
    <title>Groupbubble4</title>
    <desc>Created with Sketch.</desc>
    <defs></defs>
    <g id="Page-1" stroke="none" stroke-width="1" fill="none" fill-rule="evenodd" sketch:type="MSPage">
        <g id="LeadershipBonus" sketch:type="MSArtboardGroup" transform="translate(-143.000000, -225.000000)">
            <g id="Group" sketch:type="MSLayerGroup" transform="translate(144.000000, 123.000000)">
                <g id="success-Unit-Copy-2" sketch:type="MSShapeGroup">
                    <g id="Group" transform="translate(0.000000, 103.000000)">
                        <circle id="tob-bubble" stroke="#FFFFFF" stroke-width="2" fill="#54D0CD" cx="45" cy="45" r="45"></circle>
                        <path d="M42.3888716,49.1653148 L39.4183997,46.9610697 L39.4183997,50.2707471 L30.7152953,52.4871277 C29.9320916,52.8114761 29.3025028,53.3967374 28.9446497,54.1320374 L26.6171497,60.1997794 L45.2371497,60.1997794 L45.2371497,49.7191342 L43.6922716,49.7191342 C43.1941866,49.7191342 42.7199584,49.5177955 42.3888716,49.1653148" id="Fill-1335" fill="#BF8662"></path>
                        <path d="M61.5293587,54.1322581 C61.1715056,53.3969581 60.541335,52.8116968 59.7587131,52.4867968 L51.0556087,50.2709677 L51.0556087,46.9612903 L48.0851369,49.1655355 C47.75405,49.5180161 47.2798219,49.7193548 46.7817369,49.7193548 L45.2368587,49.7193548 L45.2368587,60.2 L63.8568587,60.2 L61.5293587,54.1322581 Z" id="Fill-1336" fill="#AF7653"></path>
                        <path d="M55.1287337,38.2780758 C55.1287337,37.6652339 54.5468587,37.0523919 53.9649837,37.0523919 C53.3831087,37.0523919 53.3831087,37.6652339 53.3831087,37.6652339 L53.3831087,37.0523919 C53.372635,32.0878758 52.7872687,28.7781984 45.2368587,28.7781984 C37.6864487,28.7781984 37.1010825,32.0878758 37.0906087,37.0523919 L37.0906087,41.4448855 L39.4181087,46.9610145 L42.3885806,49.1652597 C42.7196675,49.5177403 43.1938956,49.719079 43.6919806,49.719079 L45.2368587,49.719079 L46.7817369,49.719079 C47.2798219,49.719079 47.75405,49.5177403 48.0851369,49.1652597 L51.0556087,46.9610145 L52.9135356,42.5585919 C54.5695519,42.4526823 55.1287337,40.0757823 55.1287337,38.2780758" id="Fill-1337" fill="#BF8662"></path>
                        <path d="M37.0906088,37.0523368 L37.0906088,37.6651787 C37.0906088,37.6651787 37.0906088,37.0523368 36.5087338,37.0523368 C35.9268588,37.0523368 35.3449838,37.6651787 35.3449838,38.2780206 C35.3449838,40.0757271 35.9041656,42.4526271 37.5601819,42.5585368 L39.4181088,46.961511 L42.3885806,49.1652045 C42.7196675,49.5176852 43.1938956,49.7195755 43.6919806,49.7195755 L45.2368588,49.7195755 L45.2368588,28.7781432 C37.6864488,28.7781432 37.1010825,32.0878206 37.0906088,37.0523368" id="Fill-1338" fill="#CC9978"></path>
                        <path d="M42.3274838,43.6716916 L48.1462338,43.6716916 C48.1462338,43.6716916 48.1462338,45.3265303 45.2368588,45.3265303 C42.3274838,45.3265303 42.3274838,43.6716916 42.3274838,43.6716916" id="Fill-1339" fill="#84462D"></path>
                        <path d="M56.2924837,51.3741935 C56.2924837,51.3741935 54.6131925,51.0366065 53.9649837,50.8225806 C53.279535,56.4898516 51.8231019,57.4430387 45.2368587,57.4430387 C38.6506156,57.4430387 37.1941825,56.4898516 36.5087337,50.8225806 C35.860525,51.0366065 34.1812337,51.3741935 34.1812337,51.3741935 L33.0174837,60.2 L45.2368587,60.2 L57.4562337,60.2 L56.2924837,51.3741935 Z" id="Fill-1340" fill="#FFFFFF"></path>
                        <path d="M45.3223944,57.7562445 L38.6168669,50.4721961 C38.5115475,50.3574606 38.5237669,50.183151 38.6447969,50.083309 C38.7658269,49.9829155 38.9496994,49.995051 39.0556006,50.1097865 L45.3165756,56.9111735 L51.4157894,50.1125445 C51.519945,49.9961542 51.7032356,49.9823639 51.8260113,50.0811026 C51.948205,50.1798413 51.9633338,50.3535994 51.8591781,50.4699897 L45.3223944,57.7562445 Z" id="Fill-1341" fill="#FACB1B"></path>
                        <path d="M47.5643588,57.9446755 C47.5643588,59.1631884 46.5222206,60.1511271 45.2368588,60.1511271 C43.9514969,60.1511271 42.9093588,59.1631884 42.9093588,57.9446755 C42.9093588,56.7261626 43.9514969,55.7382239 45.2368588,55.7382239 C46.5222206,55.7382239 47.5643588,56.7261626 47.5643588,57.9446755" id="Fill-1342" fill="#FACB1B"></path>
                        <path d="M55.793235,41.8886581 L54.04761,41.8886581 L54.04761,40.2338194 L55.793235,40.2338194 L55.793235,41.8886581 Z" id="Fill-1343" fill="#F3B606"></path>
                        <path d="M46.5044152,57.1876971 C46.5044152,57.336081 46.4142246,57.4574358 46.2530452,57.4574358 C45.9976021,57.4574358 45.8125659,57.0034584 45.3767415,57.0034584 C45.239419,57.0034584 45.1207165,57.0663423 45.1207165,57.2103132 C45.1207165,57.6416745 46.566094,57.3851745 46.566094,58.4183455 C46.566094,59.0069165 45.8934465,59.3213358 45.5472309,59.3483648 C45.4337652,59.3571906 45.4477302,59.3935971 45.4477302,59.5011616 C45.4477302,59.7212552 45.4337652,59.7168423 45.2010152,59.7168423 C44.983394,59.7168423 44.9263702,59.7482842 44.9263702,59.5193648 C44.9263702,59.4471035 44.9502271,59.3621552 44.8553815,59.3527777 C44.6755821,59.3307132 44.3055096,59.254039 44.1681871,59.1597132 C44.0023527,59.0427713 43.9075071,58.6434035 43.9075071,58.4635777 C43.9075071,58.3604261 43.9552209,58.25231 44.0779965,58.25231 C44.4050102,58.25231 44.3386765,58.8811487 45.0735846,58.8811487 C45.1777402,58.8811487 45.4192184,58.8364681 45.4192184,58.6880842 C45.4192184,58.5534906 45.3767415,58.5264616 44.8646915,58.3510487 C44.4335221,58.2076294 43.9837327,57.9246519 43.9837327,57.4392326 C43.9837327,56.9902197 44.3671884,56.6305681 44.8175596,56.5456197 C44.9409171,56.5230035 44.9263702,56.5092132 44.9263702,56.38841 C44.9263702,56.1633519 44.9409171,56.1727294 45.1730852,56.1727294 C45.3953615,56.1727294 45.4477302,56.1412874 45.4477302,56.3702068 C45.4477302,56.4330906 45.4238734,56.5230035 45.509409,56.5406552 C45.5710877,56.5500326 45.8079109,56.6085035 45.8364227,56.6085035 C45.8934465,56.6085035 45.9644352,56.5632713 46.049389,56.5632713 C46.2251152,56.5632713 46.5044152,56.9091326 46.5044152,57.1876971" id="Fill-1344" fill="#FBED9A"></path>
                        <path d="M54.0476682,41.8884926 L55.7932932,40.2336539 L54.0476682,40.2336539 L54.0476682,41.8884926 Z" id="Fill-1345" fill="#FBE158"></path>
                        <path d="M45.7799227,37.6586697 L44.6935621,37.6586697 C44.6935621,37.6586697 44.6935621,36.6288084 43.6159296,36.5008342 L45.2370333,36.5008342 L46.8581371,36.5008342 C45.7799227,36.6288084 45.7799227,37.6586697 45.7799227,37.6586697 M49.8920333,35.3976084 L45.2370333,35.3976084 L40.5820333,35.3976084 C40.5820333,35.3976084 37.0907833,35.0765697 37.0907833,37.60406 C37.0907833,39.8105116 38.8364083,41.4653503 40.5820333,41.4653503 C43.6799358,41.4653503 43.7119389,38.7072858 45.2370333,38.7072858 C46.7632914,38.7072858 46.7929671,41.4653503 49.8920333,41.4653503 C51.6376583,41.4653503 53.3832833,39.8105116 53.3832833,37.60406 C53.3832833,35.0765697 49.8920333,35.3976084 49.8920333,35.3976084" id="Fill-1346" fill="#3E3E3F"></path>
                        <path d="M40.853478,36.6377997 C40.853478,36.6377997 38.176853,36.4226706 38.176853,38.115019 C38.176853,38.9804997 38.6371161,39.7163513 39.2859067,40.1797061 L43.1361736,36.6377997 L40.853478,36.6377997 Z" id="Fill-1347" fill="#5B5C5F"></path>
                        <path d="M49.5427919,36.6377997 C49.5427919,36.6377997 46.8661669,36.4226706 46.8661669,38.115019 C46.8661669,38.9804997 47.3264301,39.7163513 47.9752207,40.1797061 L51.8254876,36.6377997 L49.5427919,36.6377997 Z" id="Fill-1348" fill="#5B5C5F"></path>
                        <path d="M38.2334694,31.9567574 L33.2165432,33.4499735 C31.8462276,33.9337381 31.8386632,34.744609 33.1996688,35.2515413 L36.6414594,36.5334897 C41.5937976,38.3168542 48.1305813,37.9853348 52.2694582,35.5632026 L38.2334694,31.9567574 Z" id="Fill-1349" fill="#FA5655"></path>
                        <path d="M53.9621326,30.49901 C54.1204026,29.5436165 47.7180319,26.2797229 46.1539519,26.0469423 C44.5904538,25.8141616 37.9623157,27.1407906 37.8046276,28.0956326 L36.5471957,32.46551 C36.3889257,33.4203519 40.1111801,34.7673906 44.8610257,35.4740068 C49.6108713,36.1800713 53.5891507,35.9787326 53.7474207,35.023339 L53.9621326,30.49901 Z" id="Fill-1350" fill="#3E3E3F"></path>
                        <path d="M42.0601122,29.4882345 C42.0601122,29.4882345 40.4145697,29.749699 40.2510628,30.7381894 C40.0875559,31.7261281 41.4060847,33.4410926 41.4060847,33.4410926 C41.4060847,33.4410926 43.2151341,32.1911377 43.3786409,31.203199 C43.5421478,30.2147087 42.0601122,29.4882345 42.0601122,29.4882345" id="Fill-1351" fill="#F3B606"></path>
                    </g>
                </g>
            </g>
        </g>
    </g>
</svg>
