<?xml version="1.0" encoding="UTF-8" standalone="no"?>
<svg width="156px" height="144px" viewBox="0 0 156 144" version="1.1" xmlns="http://www.w3.org/2000/svg" xmlns:xlink="http://www.w3.org/1999/xlink" xmlns:sketch="http://www.bohemiancoding.com/sketch/ns">
    <!-- Generator: Sketch 3.4.2 (15855) - http://www.bohemiancoding.com/sketch -->
    <title>Prospect</title>
    <desc>Created with Sketch.</desc>
    <defs></defs>
    <g id="Page-1" stroke="none" stroke-width="1" fill="none" fill-rule="evenodd" sketch:type="MSPage">
        <g id="Join" sketch:type="MSArtboardGroup" transform="translate(-296.000000, -288.000000)">
            <g id="oval" sketch:type="MSLayerGroup" transform="translate(157.000000, 163.000000)">
                <g id="Prospect" transform="translate(140.000000, 125.000000)" sketch:type="MSShapeGroup">
                    <path d="M77.094236,143.196078 L47.9599275,97.0748059 L106.228545,97.0748059 L77.094236,143.196078 Z" id="Fill-1301" fill="#F0F1F1"></path>
                    <path d="M86.8044583,97.1568403 L77.0930221,97.1568403 L67.3815859,97.1568403 L52.8144317,88.0505405 L52.8144317,95.8607944 C52.8144317,95.8607944 52.8144317,114.063686 77.0930221,114.063686 C101.371613,114.063686 101.371613,95.8607944 101.371613,95.8607944 L101.371613,88.0481135 L86.8044583,97.1568403 Z" id="Fill-1302" fill="#F8B4B4"></path>
                    <path d="M118.36784,46.6532824 C118.36784,43.9568274 115.939981,41.2603724 113.512122,41.2603724 C111.084263,41.2603724 111.084263,43.9568274 111.084263,43.9568274 L111.084263,41.2603724 C111.040561,19.4169028 108.598135,4.85458976 77.094236,4.85458976 C45.5903371,4.85458976 43.1479109,19.4169028 43.1042094,41.2603724 L43.1042094,60.6695087 L52.8156456,84.9400304 L65.209866,94.6361039 C66.5913178,96.1894173 68.5700229,97.0752913 70.6482703,97.0752913 L77.094236,97.0752913 L83.5402018,97.0752913 C85.6184491,97.0752913 87.5971543,96.1894173 88.9786061,94.6361039 L101.372826,84.9400304 L109.156543,65.4823531 C116.041951,64.9872345 118.36784,54.5484831 118.36784,46.6532824" id="Fill-1303" fill="#FBC8C8"></path>
                    <path d="M43.1042094,41.259887 L43.1042094,43.956342 C43.1042094,43.956342 43.1042094,41.259887 40.6763504,41.259887 C38.2484914,41.259887 35.8206323,43.956342 35.8206323,46.6527969 C35.8206323,54.5504247 38.1465213,64.9867491 45.0295017,65.4842948 L52.8156456,84.939545 L65.209866,94.6380455 C66.5913178,96.1889319 68.5700229,97.0748059 70.6482703,97.0748059 L77.094236,97.0748059 L77.094236,4.85410435 C45.5903371,4.85410435 43.1479109,19.4164174 43.1042094,41.259887" id="Fill-1304" fill="#FBD7D7"></path>
                    <path d="M60.0980088,77.7404229 L60.1247153,77.6579031 L57.6288762,77.6579031 L57.6701498,77.7404229 L60.0980088,77.7404229 Z" id="Fill-1305" fill="#FBC8C8"></path>
                    <path d="M77.0930221,97.1568403 L67.3815859,97.1568403 L52.8144317,88.0505405 L52.8144317,95.8607944 C52.8144317,95.8607944 52.8144317,114.063686 77.0930221,114.063686 L77.0930221,97.1568403 L77.0930221,97.1568403 Z" id="Fill-1306" fill="#FBC8C8"></path>
                    <path d="M96.5158944,77.7404229 L94.0880354,77.7404229 L89.2323173,63.1781098 L77.0930221,63.1781098 L64.9537269,63.1781098 L60.0980088,77.7404229 L57.6701498,77.7404229 L50.3865726,63.1781098 L50.3865726,23.4788173 C58.493194,28.9299765 66.9251484,29.2357851 77.0930221,29.1920982 L77.0930221,29.184817 C83.4151671,29.1556924 96.2512578,29.2600556 103.799472,22.4230497 L103.799472,63.1781098 L96.5158944,77.7404229 Z M108.186613,15.2268399 C108.424543,14.2147592 108.54108,13.1881161 108.54108,12.1639001 C108.54108,5.26864487 106.336584,0.55773659 77.0930221,0.0965966766 L77.0930221,0.0383474244 C75.5561873,0.0140769026 73.9659397,-0.000485410435 72.2761498,-0.000485410435 C41.8987774,-0.000485410435 40.6095843,19.369818 40.6775643,23.4909526 C40.6872758,23.9836442 40.7139822,24.2724634 40.7139822,24.2724634 L40.7139822,41.3006615 L40.7139822,41.3346402 L45.5697003,51.0428489 L45.5697003,68.0322142 L47.9587136,85.0142982 L67.3815859,97.1568403 L77.0930221,97.1568403 L86.8044583,97.1568403 L106.227331,85.0142982 L108.616344,68.0322142 L108.616344,51.0428489 L108.694035,51.0428489 L113.549753,41.3346402 L113.549753,29.1241407 C113.549753,24.3258586 111.75071,19.5494199 108.186613,15.2268399 L108.186613,15.2268399 Z" id="Fill-1307" fill="#692E19"></path>
                    <path d="M77.094236,29.1920982 L77.094236,0.0383474244 C75.5574013,0.0165039548 73.9671536,-0.000485410435 72.2773637,-0.000485410435 C38.2873371,-0.000485410435 40.7151961,24.2700364 40.7151961,24.2700364 L40.7151961,41.3346402 L45.5709142,51.0428489 L45.5709142,68.0322142 L47.9599275,85.0142982 L67.3827999,97.1568403 L77.094236,97.1568403 L77.094236,63.1781098 L64.9549408,63.1781098 L60.0992227,77.7404229 L57.6713637,77.7404229 L50.3877866,63.1781098 L50.3877866,23.4569739 C55.70237,27.0295947 59.9438398,29.2576286 77.094236,29.1920982" id="Fill-1308" fill="#84462D"></path>
                    <path d="M69.8106589,46.1067102 C69.8106589,43.4272446 67.6352972,41.2526058 64.9549408,41.2526058 C64.9500851,41.2526058 64.9452294,41.2550329 64.9403737,41.2550329 C64.9428015,41.306001 64.9549408,41.354542 64.9549408,41.4055101 C64.9549408,44.0801216 62.7892906,46.2499063 60.1137899,46.2571874 C60.1963371,48.8662685 62.3255695,50.9608146 64.9549408,50.9608146 C67.6352972,50.9608146 69.8106589,48.7886029 69.8106589,46.1067102" id="Fill-1309" fill="#3E3E3F"></path>
                    <path d="M94.0739538,46.1067102 C94.0739538,43.4272446 91.8985921,41.2526058 89.2182357,41.2526058 C89.21338,41.2526058 89.2085243,41.2550329 89.2036686,41.2550329 C89.2060964,41.306001 89.2182357,41.354542 89.2182357,41.4055101 C89.2182357,44.0801216 87.0525855,46.2499063 84.3770848,46.2571874 C84.459632,48.8662685 86.5888644,50.9608146 89.2182357,50.9608146 C91.8985921,50.9608146 94.0739538,48.7886029 94.0739538,46.1067102" id="Fill-1310" fill="#3E3E3F"></path>
                    <path d="M47.9599275,97.0748059 L52.8156456,94.6477537 L77.0578182,106.736901 L62.5270818,121.345328 L47.9599275,97.0748059 Z" id="Fill-1311" fill="#FFFFFF"></path>
                    <path d="M106.228545,97.0748059 L101.372826,94.6477537 L77.1306539,106.736901 L91.6613903,121.345328 L106.228545,97.0748059 Z" id="Fill-1312" fill="#FFFFFF"></path>
                    <path d="M86.8056722,143.196078 L80.0100947,118.440146 L84.3778132,114.076306 L77.0481067,106.736901 L69.7693853,114.013203 L74.183233,118.425584 L67.3827999,143.196078 L86.8056722,143.196078 Z" id="Fill-1313" fill="#089786"></path>
                    <path d="M77.094236,143.196078 L77.094236,106.783015 L77.0481067,106.736901 L69.7693853,114.013203 L74.183233,118.425584 L67.3827999,143.196078 L77.094236,143.196078 Z" id="Fill-1314" fill="#11B3A0"></path>
                    <path d="M-0.597253324,143.196078 L9.11418285,116.498504 C10.6073162,113.263244 13.2366875,110.688142 16.5021579,109.258608 L47.9599275,97.0820871 L77.094236,143.196078 L-0.597253324,143.196078 Z" id="Fill-1315" fill="#3E3E3F"></path>
                    <path d="M154.785725,143.196078 L145.074289,116.498504 C143.581156,113.263244 140.951785,110.688142 137.686314,109.258608 L106.228545,97.0820871 L77.094236,143.196078 L154.785725,143.196078 Z" id="Fill-1316" fill="#3E3E3F"></path>
                    <path d="M128.079276,131.053536 L103.800686,131.053536 L103.800686,126.199432 L128.079276,126.199432 L128.079276,131.053536 Z" id="Fill-1317" fill="#FFFFFF"></path>
                    <path d="M67.3827999,70.377232 L86.8056722,70.377232 C86.8056722,70.377232 86.8056722,80.0927218 77.094236,80.0927218 C67.3827999,80.0927218 67.3827999,70.377232 67.3827999,70.377232" id="Fill-1318" fill="#FBC8C8"></path>
                </g>
            </g>
        </g>
    </g>
</svg>
